<svg width="42" height="59" viewBox="0 0 42 59" fill="none" xmlns="http://www.w3.org/2000/svg">
<path d="M34.229 27.3088C37.3373 25.7018 39.2821 22.8716 38.8277 18.1568C38.216 11.7134 32.7342 9.5528 25.814 8.93748L25.8126 0H20.4508L20.4493 8.70244C19.0387 8.70244 17.6006 8.73057 16.1691 8.75973L16.1678 0.00118621L10.8109 0.000677871L10.8099 8.93596C9.64897 8.96002 8.50884 8.9829 7.3956 8.9829V8.95647L0 8.95342L0.00100107 14.7628C0.00100107 14.7628 3.96055 14.6873 3.89533 14.7606C6.06628 14.7622 6.77515 16.0416 6.97901 17.1459L6.98069 27.3276V41.6296C6.88509 42.3226 6.48287 43.43 4.96487 43.432C5.03394 43.4938 1.06454 43.4314 1.06454 43.4314L0.00100107 49.9276H6.97735C8.27729 49.9291 9.55453 49.9497 10.8076 49.9599L10.8123 58.9985L16.1678 59L16.1663 50.0561C17.6397 50.0866 19.062 50.0997 20.4513 50.0979L20.4498 59H25.8114L25.8143 49.9764C34.8268 49.4511 41.1363 47.1469 41.9208 38.5573C42.5531 31.6419 39.346 28.555 34.229 27.3088ZM16.2972 15.155C19.3211 15.155 28.8314 14.1777 28.8327 20.5885C28.8314 26.7346 19.3242 26.0167 16.2972 26.0167V15.155ZM16.2949 43.4761L16.2972 31.5001C19.9303 31.499 31.326 30.439 31.3275 37.4853C31.3291 44.2428 19.9303 43.4735 16.2949 43.4761Z" fill="#333333"/>
</svg>
