<svg width="540" height="311" viewBox="0 0 540 311" fill="none" xmlns="http://www.w3.org/2000/svg">
<path d="M0 93.9417V286.942C6.8 304.942 18.1667 310.108 23 310.442H122.5H248.5H379C400.833 310.275 448.5 310.042 464.5 310.442C480.5 310.842 487.5 297.942 489 291.442V251.442V118.442C489.833 95.775 491 45.4417 489 25.4417C487 5.44171 471.833 0.441718 464.5 0.441721H305H93.5C75.6667 0.108388 36.6 -0.358279 23 0.441721C9.4 1.24172 2 13.1084 0 18.9417V93.9417Z" fill="#1F1A1A"/>
<path d="M350.962 254L347.126 244.2H348.274L351.634 252.964L355.008 244.2H356.114L352.25 254H350.962ZM354.946 254L358.824 244.2H360.112L363.934 254H362.772L361.61 250.92H357.242L356.08 254H354.946ZM357.578 250.066H361.288L359.426 245.166L357.578 250.066ZM365.309 254V244.2H366.387V253.048H371.917V254H365.309ZM373.784 254V244.2H374.862V254H373.784ZM377.34 254V244.2H380.588C381.306 244.2 381.964 244.326 382.562 244.578C383.168 244.83 383.686 245.175 384.116 245.614C384.545 246.043 384.881 246.561 385.124 247.168C385.366 247.765 385.488 248.409 385.488 249.1C385.488 249.791 385.366 250.439 385.124 251.046C384.89 251.643 384.559 252.161 384.13 252.6C383.7 253.029 383.182 253.37 382.576 253.622C381.969 253.874 381.306 254 380.588 254H377.34ZM380.658 245.166H378.418V253.034H380.658C381.18 253.034 381.67 252.936 382.128 252.74C382.585 252.535 382.982 252.259 383.318 251.914C383.654 251.559 383.915 251.144 384.102 250.668C384.298 250.183 384.396 249.66 384.396 249.1C384.396 248.54 384.298 248.022 384.102 247.546C383.915 247.061 383.654 246.645 383.318 246.3C382.982 245.945 382.585 245.67 382.128 245.474C381.67 245.269 381.18 245.166 380.658 245.166ZM389.939 245.152V244.2H397.779V245.152H394.405V254H393.327V245.152H389.939ZM399.42 254V244.2H400.498V248.582H406.126V244.2H407.204V254H406.126V249.548H400.498V254H399.42ZM409.674 254V244.2H413.692C414.625 244.2 415.376 244.461 415.946 244.984C416.524 245.507 416.814 246.188 416.814 247.028C416.814 247.672 416.627 248.232 416.254 248.708C415.89 249.175 415.395 249.497 414.77 249.674L416.856 254H415.666L413.678 249.814H410.752V254H409.674ZM413.608 245.152H410.752V248.918H413.608C414.252 248.918 414.765 248.745 415.148 248.4C415.54 248.055 415.736 247.602 415.736 247.042C415.736 246.473 415.54 246.015 415.148 245.67C414.765 245.325 414.252 245.152 413.608 245.152ZM426.41 249.856C426.41 251.163 426.051 252.208 425.332 252.992C424.623 253.767 423.671 254.154 422.476 254.154C421.272 254.154 420.316 253.767 419.606 252.992C418.897 252.217 418.542 251.172 418.542 249.856V244.2H419.62V249.856C419.62 250.855 419.877 251.657 420.39 252.264C420.913 252.871 421.608 253.174 422.476 253.174C423.344 253.174 424.035 252.871 424.548 252.264C425.071 251.657 425.332 250.855 425.332 249.856V244.2H426.41V249.856Z" fill="#D3C11C"/>
<path d="M79 63H45C40.5817 63 37 66.5817 37 71V95C37 99.4183 40.5817 103 45 103H79C83.4183 103 87 99.4183 87 95V71C87 66.5817 83.4183 63 79 63Z" fill="#D3C11C"/>
<path d="M37 75.5H55" stroke="black" stroke-opacity="0.11"/>
<path d="M70 75.5H87" stroke="black" stroke-opacity="0.11"/>
<path d="M69.5 63V103" stroke="black" stroke-opacity="0.11"/>
<path d="M37 89.5H55" stroke="black" stroke-opacity="0.11"/>
<path d="M69 89.5H87" stroke="black" stroke-opacity="0.11"/>
<path d="M55.5 63V103" stroke="black" stroke-opacity="0.11"/>
<g opacity="0.5">
<path opacity="0.5" d="M69.8486 45.501C70.5266 46.1657 70.5266 47.2441 69.8486 47.9097C69.1697 48.5753 68.0692 48.5753 67.3912 47.9097C64.4168 44.9941 59.5777 44.9941 56.6037 47.9097C55.9248 48.5753 54.8239 48.5753 54.1459 47.9097C53.8066 47.5772 53.6377 47.1423 53.6377 46.7049C53.6377 46.2692 53.8071 45.8331 54.1459 45.501C58.4755 41.2567 65.519 41.2567 69.8486 45.501Z" fill="white"/>
<path opacity="0.5" d="M75.8185 40.073C76.4966 40.7382 76.4966 41.817 75.8185 42.4826C75.1396 43.1482 74.0396 43.1482 73.3611 42.4826C67.0955 36.339 56.9003 36.339 50.6347 42.4826C49.9562 43.1482 48.8553 43.1482 48.1777 42.4826C47.8385 42.15 47.6682 41.7135 47.6682 41.2778C47.6682 40.8412 47.8385 40.406 48.1777 40.073C51.8689 36.4538 56.7771 34.4608 61.9977 34.4608C67.2183 34.4608 72.1265 36.4538 75.8185 40.073Z" fill="white"/>
<path opacity="0.5" d="M81.2866 34.0204C81.965 34.6856 81.965 35.7644 81.2866 36.4296C80.6081 37.0948 79.5081 37.0948 78.8296 36.4296C74.3332 32.0218 68.3554 29.5945 61.9974 29.5945C55.6394 29.5945 49.662 32.0218 45.1665 36.4296C44.4871 37.0948 43.3871 37.0948 42.7091 36.4296C42.3698 36.097 42.2004 35.6609 42.2004 35.2248C42.2004 34.7891 42.3703 34.353 42.7091 34.0204C47.8611 28.969 54.7119 26.1875 61.9974 26.1875C69.2842 26.1875 76.1346 28.969 81.2866 34.0204Z" fill="white"/>
</g>
<path d="M42.796 253.174C43.356 253.174 43.8973 253.057 44.42 252.824C44.9427 252.591 45.3813 252.259 45.736 251.83L46.436 252.544C45.96 253.057 45.4047 253.454 44.77 253.734C44.1353 254.014 43.468 254.154 42.768 254.154C42.068 254.154 41.41 254.023 40.794 253.762C40.1873 253.491 39.66 253.132 39.212 252.684C38.7733 252.227 38.4233 251.69 38.162 251.074C37.91 250.458 37.784 249.8 37.784 249.1C37.784 248.4 37.91 247.742 38.162 247.126C38.4233 246.501 38.778 245.964 39.226 245.516C39.674 245.059 40.2013 244.699 40.808 244.438C41.4147 244.177 42.068 244.046 42.768 244.046C43.4867 244.046 44.168 244.186 44.812 244.466C45.456 244.746 46.0067 245.143 46.464 245.656L45.75 246.398C45.386 245.969 44.938 245.633 44.406 245.39C43.874 245.147 43.328 245.026 42.768 245.026C42.2173 245.026 41.704 245.133 41.228 245.348C40.752 245.553 40.3413 245.838 39.996 246.202C39.6507 246.566 39.3753 247 39.17 247.504C38.974 247.999 38.876 248.531 38.876 249.1C38.876 249.669 38.974 250.206 39.17 250.71C39.3753 251.205 39.6507 251.634 39.996 251.998C40.3413 252.362 40.752 252.651 41.228 252.866C41.7133 253.071 42.236 253.174 42.796 253.174ZM47.2842 254L51.1622 244.2H52.4502L56.2722 254H55.1102L53.9482 250.92H49.5802L48.4182 254H47.2842ZM49.9162 250.066H53.6262L51.7642 245.166L49.9162 250.066ZM57.6464 254V244.2H61.6644C62.5977 244.2 63.3491 244.461 63.9184 244.984C64.4971 245.507 64.7864 246.188 64.7864 247.028C64.7864 247.672 64.5997 248.232 64.2264 248.708C63.8624 249.175 63.3677 249.497 62.7424 249.674L64.8284 254H63.6384L61.6504 249.814H58.7244V254H57.6464ZM61.5804 245.152H58.7244V248.918H61.5804C62.2244 248.918 62.7377 248.745 63.1204 248.4C63.5124 248.055 63.7084 247.602 63.7084 247.042C63.7084 246.473 63.5124 246.015 63.1204 245.67C62.7377 245.325 62.2244 245.152 61.5804 245.152ZM66.7108 254V244.2H69.9588C70.6775 244.2 71.3355 244.326 71.9328 244.578C72.5395 244.83 73.0575 245.175 73.4868 245.614C73.9162 246.043 74.2522 246.561 74.4948 247.168C74.7375 247.765 74.8588 248.409 74.8588 249.1C74.8588 249.791 74.7375 250.439 74.4948 251.046C74.2615 251.643 73.9302 252.161 73.5008 252.6C73.0715 253.029 72.5535 253.37 71.9468 253.622C71.3402 253.874 70.6775 254 69.9588 254H66.7108ZM70.0288 245.166H67.7888V253.034H70.0288C70.5515 253.034 71.0415 252.936 71.4988 252.74C71.9562 252.535 72.3528 252.259 72.6888 251.914C73.0248 251.559 73.2862 251.144 73.4728 250.668C73.6688 250.183 73.7668 249.66 73.7668 249.1C73.7668 248.54 73.6688 248.022 73.4728 247.546C73.2862 247.061 73.0248 246.645 72.6888 246.3C72.3528 245.945 71.9562 245.67 71.4988 245.474C71.0415 245.269 70.5515 245.166 70.0288 245.166ZM76.8824 254V244.2H77.9604V248.582H83.5884V244.2H84.6664V254H83.5884V249.548H77.9604V254H76.8824ZM96.4326 249.1C96.4326 249.8 96.3066 250.463 96.0546 251.088C95.8026 251.704 95.4573 252.241 95.0186 252.698C94.58 253.146 94.062 253.501 93.4646 253.762C92.8766 254.023 92.242 254.154 91.5606 254.154C90.8886 254.154 90.254 254.023 89.6566 253.762C89.0593 253.501 88.5413 253.146 88.1026 252.698C87.664 252.241 87.3186 251.704 87.0666 251.088C86.8146 250.463 86.6886 249.8 86.6886 249.1C86.6886 248.4 86.8146 247.742 87.0666 247.126C87.3186 246.501 87.664 245.964 88.1026 245.516C88.5413 245.059 89.0593 244.699 89.6566 244.438C90.254 244.177 90.8886 244.046 91.5606 244.046C92.242 244.046 92.8766 244.177 93.4646 244.438C94.062 244.699 94.58 245.059 95.0186 245.516C95.4573 245.964 95.8026 246.501 96.0546 247.126C96.3066 247.742 96.4326 248.4 96.4326 249.1ZM95.3406 249.1C95.3406 248.531 95.2426 247.999 95.0466 247.504C94.8506 247 94.5846 246.566 94.2486 246.202C93.9126 245.838 93.5113 245.553 93.0446 245.348C92.5873 245.133 92.0926 245.026 91.5606 245.026C91.0286 245.026 90.5293 245.133 90.0626 245.348C89.6053 245.553 89.2086 245.838 88.8726 246.202C88.5366 246.566 88.2706 247 88.0746 247.504C87.8786 247.999 87.7806 248.531 87.7806 249.1C87.7806 249.669 87.8786 250.206 88.0746 250.71C88.2706 251.205 88.5366 251.634 88.8726 251.998C89.2086 252.362 89.6053 252.651 90.0626 252.866C90.5293 253.071 91.0286 253.174 91.5606 253.174C92.0926 253.174 92.5873 253.071 93.0446 252.866C93.5113 252.651 93.9126 252.362 94.2486 251.998C94.5846 251.634 94.8506 251.205 95.0466 250.71C95.2426 250.206 95.3406 249.669 95.3406 249.1ZM98.4706 254V244.2H99.5486V253.048H105.079V254H98.4706ZM106.975 254V244.2H110.223C110.941 244.2 111.599 244.326 112.197 244.578C112.803 244.83 113.321 245.175 113.751 245.614C114.18 246.043 114.516 246.561 114.759 247.168C115.001 247.765 115.123 248.409 115.123 249.1C115.123 249.791 115.001 250.439 114.759 251.046C114.525 251.643 114.194 252.161 113.765 252.6C113.335 253.029 112.817 253.37 112.211 253.622C111.604 253.874 110.941 254 110.223 254H106.975ZM110.293 245.166H108.053V253.034H110.293C110.815 253.034 111.305 252.936 111.763 252.74C112.22 252.535 112.617 252.259 112.953 251.914C113.289 251.559 113.55 251.144 113.737 250.668C113.933 250.183 114.031 249.66 114.031 249.1C114.031 248.54 113.933 248.022 113.737 247.546C113.55 247.061 113.289 246.645 112.953 246.3C112.617 245.945 112.22 245.67 111.763 245.474C111.305 245.269 110.815 245.166 110.293 245.166ZM117.16 254V244.2H123.852V245.138H118.238V248.582H122.13V249.52H118.238V253.062H123.908V254H117.16ZM125.828 254V244.2H129.846C130.779 244.2 131.531 244.461 132.1 244.984C132.679 245.507 132.968 246.188 132.968 247.028C132.968 247.672 132.781 248.232 132.408 248.708C132.044 249.175 131.549 249.497 130.924 249.674L133.01 254H131.82L129.832 249.814H126.906V254H125.828ZM129.762 245.152H126.906V248.918H129.762C130.406 248.918 130.919 248.745 131.302 248.4C131.694 248.055 131.89 247.602 131.89 247.042C131.89 246.473 131.694 246.015 131.302 245.67C130.919 245.325 130.406 245.152 129.762 245.152ZM138.16 244.2H139.28L145.02 252.32L144.992 244.2H146.014V254H145.034L139.154 245.698L139.182 254H138.16V244.2ZM147.39 254L151.268 244.2H152.556L156.378 254H155.216L154.054 250.92H149.686L148.524 254H147.39ZM150.022 250.066H153.732L151.87 245.166L150.022 250.066ZM162.526 253.3L158.76 245.446V254H157.752V244.2H159.25L162.526 251.172L165.802 244.2H167.3V254H166.278V245.474L162.526 253.3ZM169.81 254V244.2H176.502V245.138H170.888V248.582H174.78V249.52H170.888V253.062H176.558V254H169.81Z" fill="#D3C11C"/>
</svg>
