<svg width="50" height="84" viewBox="0 0 50 84" fill="none" xmlns="http://www.w3.org/2000/svg">
<path d="M42 44H8C3.58172 44 0 47.5817 0 52V76C0 80.4183 3.58172 84 8 84H42C46.4183 84 50 80.4183 50 76V52C50 47.5817 46.4183 44 42 44Z" fill="#ECE6DF"/>
<path d="M0 56.5H18" stroke="black" stroke-opacity="0.11"/>
<path d="M33 56.5H50" stroke="black" stroke-opacity="0.11"/>
<path d="M32.5 44V84" stroke="black" stroke-opacity="0.11"/>
<path d="M0 70.5H18" stroke="black" stroke-opacity="0.11"/>
<path d="M32 70.5H50" stroke="black" stroke-opacity="0.11"/>
<path d="M18.5 44V84" stroke="black" stroke-opacity="0.11"/>
<g opacity="0.5">
<path opacity="0.5" d="M32.8486 26.501C33.5266 27.1657 33.5266 28.2441 32.8486 28.9097C32.1697 29.5753 31.0692 29.5753 30.3912 28.9097C27.4168 25.9941 22.5777 25.9941 19.6037 28.9097C18.9248 29.5753 17.8239 29.5753 17.1459 28.9097C16.8066 28.5772 16.6377 28.1423 16.6377 27.7049C16.6377 27.2692 16.8071 26.8331 17.1459 26.501C21.4755 22.2567 28.519 22.2567 32.8486 26.501Z" fill="black"/>
<path opacity="0.5" d="M38.8185 21.073C39.4966 21.7382 39.4966 22.817 38.8185 23.4826C38.1396 24.1482 37.0396 24.1482 36.3611 23.4826C30.0955 17.339 19.9003 17.339 13.6347 23.4826C12.9562 24.1482 11.8553 24.1482 11.1777 23.4826C10.8385 23.15 10.6682 22.7135 10.6682 22.2778C10.6682 21.8412 10.8385 21.406 11.1777 21.073C14.8689 17.4538 19.7771 15.4608 24.9977 15.4608C30.2183 15.4608 35.1265 17.4538 38.8185 21.073Z" fill="black"/>
<path opacity="0.5" d="M44.2866 15.0204C44.965 15.6856 44.965 16.7644 44.2866 17.4296C43.6081 18.0948 42.5081 18.0948 41.8296 17.4296C37.3332 13.0218 31.3554 10.5945 24.9974 10.5945C18.6394 10.5945 12.662 13.0218 8.16648 17.4296C7.48712 18.0948 6.38712 18.0948 5.70908 17.4296C5.36984 17.097 5.20044 16.6609 5.20044 16.2248C5.20044 15.7891 5.37028 15.353 5.70908 15.0204C10.8611 9.96899 17.7119 7.1875 24.9974 7.1875C32.2842 7.1875 39.1346 9.96899 44.2866 15.0204Z" fill="black"/>
</g>
</svg>
