<svg width="37" height="33" viewBox="0 0 37 33" fill="none" xmlns="http://www.w3.org/2000/svg">
<path fill-rule="evenodd" clip-rule="evenodd" d="M18.5 33C27.6417 33 35.0526 25.6127 35.0526 16.5C35.0526 14.5729 34.7212 12.7229 34.1121 11.0037C35.9405 8.18907 37 4.8468 37 1.26176C37 0.612971 36.0833 0.551475 35.8541 1.1587C35.0122 3.38897 33.7364 5.41267 32.1273 7.13116C29.1407 2.82286 24.1511 0 18.5 0C12.8489 0 7.85925 2.82286 4.87269 7.13116C3.26357 5.41267 1.9878 3.38896 1.14594 1.1587C0.916726 0.551472 0 0.612968 0 1.26176C0 4.8468 1.05946 8.18907 2.88795 11.0037C2.2788 12.7229 1.94737 14.5729 1.94737 16.5C1.94737 25.6127 9.35823 33 18.5 33ZM13.1582 12.7633C13.613 12.5983 14.1204 12.7915 14.3491 13.2167L16.934 18.021C17.3601 18.813 16.5708 19.7071 15.7286 19.3865L8.00418 16.446C7.16198 16.1255 7.17146 14.9345 8.01864 14.6272L13.1582 12.7633ZM24.622 12.7632C24.1671 12.5982 23.6598 12.7914 23.431 13.2166L20.8461 18.0209C20.4199 18.8128 21.2093 19.7069 22.0515 19.3863L29.7759 16.446C30.6181 16.1255 30.6086 14.9345 29.7614 14.6272L24.622 12.7632Z" fill="#CF2323"/>
</svg>
