<svg width="487" height="309" viewBox="0 0 487 309" fill="none" xmlns="http://www.w3.org/2000/svg">
<path d="M465.221 308.009H18.7209C2.72086 304.409 -0.279138 291.843 0.220861 286.009V230.509V122.009V57.0093C0.054194 51.176 -0.179139 36.1093 0.220861 22.5093C0.620861 8.90934 15.3875 1.84266 22.7209 0.00932619H38.7209H349.221C377.888 0.175993 439.721 0.409326 457.721 0.00932619C475.721 -0.390674 484.221 12.176 486.221 18.5093V76.5093V234.509V282.009C486.221 302.409 472.221 307.843 465.221 308.009Z" fill="#0E0D0D"/>
<path d="M351.078 227.555H352.898L348.789 239H346.609L342.508 227.555H344.609L347.336 235.961L347.773 237.578H347.922L348.352 235.961L351.078 227.555ZM360.586 236.047H356L355.039 239H353.305L357.359 227.555H359.555L363.609 239H361.562L360.586 236.047ZM360.156 234.719L358.797 230.484L358.367 228.852H358.211L357.789 230.484L356.414 234.719H360.156ZM365.766 239V227.555H367.703V237.625H372.289L372.031 239H365.766ZM376.484 239H374.547V227.555H376.484V239ZM379.703 227.555H383.773C384.779 227.555 385.664 227.69 386.43 227.961C387.195 228.232 387.836 228.607 388.352 229.086C388.867 229.56 389.255 230.122 389.516 230.773C389.781 231.424 389.914 232.13 389.914 232.891C389.914 233.37 389.859 233.854 389.75 234.344C389.646 234.833 389.482 235.305 389.258 235.758C389.034 236.206 388.75 236.628 388.406 237.023C388.062 237.419 387.651 237.766 387.172 238.062C386.698 238.354 386.154 238.583 385.539 238.75C384.93 238.917 384.247 239 383.492 239H379.703V227.555ZM381.641 237.625H383.781C384.479 237.625 385.086 237.51 385.602 237.281C386.117 237.047 386.544 236.732 386.883 236.336C387.221 235.935 387.474 235.466 387.641 234.93C387.807 234.388 387.891 233.807 387.891 233.188C387.891 232.51 387.794 231.909 387.602 231.383C387.409 230.857 387.125 230.411 386.75 230.047C386.38 229.682 385.924 229.406 385.383 229.219C384.841 229.026 384.224 228.93 383.531 228.93H381.641V237.625ZM400.477 239H398.531V228.93H394.82L395.078 227.555H404.305L404.047 228.93H400.477V239ZM406.344 239V227.555H408.281V232.359H413.969V227.555H415.906V239H413.969V233.734H408.281V239H406.344ZM421.062 234.547V239H419.125V227.555H422.648C423.273 227.555 423.833 227.635 424.328 227.797C424.828 227.953 425.25 228.169 425.594 228.445C425.938 228.716 426.201 229.034 426.383 229.398C426.57 229.763 426.664 230.154 426.664 230.57C426.664 230.94 426.596 231.286 426.461 231.609C426.326 231.932 426.148 232.232 425.93 232.508C425.711 232.779 425.464 233.026 425.188 233.25C424.917 233.469 424.646 233.659 424.375 233.82L427.688 239H425.398L422.953 234.547H421.062ZM421.062 233.211H423.414C423.607 233.107 423.784 232.977 423.945 232.82C424.107 232.664 424.245 232.49 424.359 232.297C424.479 232.099 424.57 231.888 424.633 231.664C424.695 231.44 424.727 231.208 424.727 230.969C424.727 230.682 424.677 230.414 424.578 230.164C424.479 229.914 424.331 229.698 424.133 229.516C423.94 229.333 423.695 229.19 423.398 229.086C423.107 228.982 422.766 228.93 422.375 228.93H421.062V233.211ZM431.656 227.555V234.719C431.656 235.245 431.737 235.701 431.898 236.086C432.065 236.471 432.281 236.789 432.547 237.039C432.818 237.289 433.122 237.477 433.461 237.602C433.799 237.721 434.141 237.781 434.484 237.781C434.839 237.781 435.172 237.719 435.484 237.594C435.802 237.469 436.078 237.284 436.312 237.039C436.547 236.794 436.732 236.487 436.867 236.117C437.008 235.747 437.078 235.315 437.078 234.82V227.555H438.75V234.711C438.75 235.065 438.708 235.422 438.625 235.781C438.547 236.135 438.424 236.477 438.258 236.805C438.091 237.133 437.88 237.44 437.625 237.727C437.375 238.013 437.078 238.263 436.734 238.477C436.391 238.685 436 238.852 435.562 238.977C435.13 239.096 434.651 239.156 434.125 239.156C433.469 239.156 432.87 239.06 432.328 238.867C431.786 238.669 431.32 238.38 430.93 238C430.544 237.62 430.245 237.154 430.031 236.602C429.823 236.044 429.719 235.406 429.719 234.688V227.555H431.656Z" fill="#CF2323"/>
<path d="M47.3438 237.914C47.0677 238.154 46.7604 238.354 46.4219 238.516C46.0885 238.672 45.7474 238.799 45.3984 238.898C45.0547 238.992 44.7135 239.057 44.375 239.094C44.0417 239.135 43.7396 239.156 43.4688 239.156C42.7031 239.156 41.9896 239.023 41.3281 238.758C40.6719 238.492 40.1016 238.117 39.6172 237.633C39.1328 237.143 38.7526 236.555 38.4766 235.867C38.2005 235.174 38.0625 234.406 38.0625 233.562C38.0625 232.917 38.1432 232.318 38.3047 231.766C38.4661 231.208 38.6901 230.703 38.9766 230.25C39.263 229.792 39.6042 229.385 40 229.031C40.3958 228.677 40.8281 228.38 41.2969 228.141C41.7656 227.896 42.263 227.711 42.7891 227.586C43.3151 227.461 43.8542 227.398 44.4062 227.398C44.5833 227.398 44.7839 227.406 45.0078 227.422C45.2318 227.438 45.4714 227.464 45.7266 227.5C45.9818 227.531 46.2448 227.576 46.5156 227.633C46.7917 227.685 47.0703 227.753 47.3516 227.836L47.0391 229.352L46.8828 229.43C46.3411 229.18 45.8333 229.008 45.3594 228.914C44.8906 228.82 44.4844 228.773 44.1406 228.773C43.5469 228.773 43 228.888 42.5 229.117C42 229.341 41.5703 229.651 41.2109 230.047C40.8516 230.443 40.5703 230.911 40.3672 231.453C40.1693 231.99 40.0703 232.568 40.0703 233.188C40.0703 233.797 40.1641 234.375 40.3516 234.922C40.5391 235.469 40.8125 235.951 41.1719 236.367C41.5365 236.779 41.9818 237.107 42.5078 237.352C43.0339 237.596 43.638 237.719 44.3203 237.719C44.7526 237.719 45.2266 237.659 45.7422 237.539C46.2578 237.419 46.7917 237.203 47.3438 236.891V237.914ZM56.0859 236.047H51.5L50.5391 239H48.8047L52.8594 227.555H55.0547L59.1094 239H57.0625L56.0859 236.047ZM55.6562 234.719L54.2969 230.484L53.8672 228.852H53.7109L53.2891 230.484L51.9141 234.719H55.6562ZM63.2031 234.547V239H61.2656V227.555H64.7891C65.4141 227.555 65.974 227.635 66.4688 227.797C66.9688 227.953 67.3906 228.169 67.7344 228.445C68.0781 228.716 68.3411 229.034 68.5234 229.398C68.7109 229.763 68.8047 230.154 68.8047 230.57C68.8047 230.94 68.737 231.286 68.6016 231.609C68.4661 231.932 68.2891 232.232 68.0703 232.508C67.8516 232.779 67.6042 233.026 67.3281 233.25C67.0573 233.469 66.7865 233.659 66.5156 233.82L69.8281 239H67.5391L65.0938 234.547H63.2031ZM63.2031 233.211H65.5547C65.7474 233.107 65.9245 232.977 66.0859 232.82C66.2474 232.664 66.3854 232.49 66.5 232.297C66.6198 232.099 66.7109 231.888 66.7734 231.664C66.8359 231.44 66.8672 231.208 66.8672 230.969C66.8672 230.682 66.8177 230.414 66.7188 230.164C66.6198 229.914 66.4714 229.698 66.2734 229.516C66.0807 229.333 65.8359 229.19 65.5391 229.086C65.2474 228.982 64.9062 228.93 64.5156 228.93H63.2031V233.211ZM71.9375 227.555H76.0078C77.013 227.555 77.8984 227.69 78.6641 227.961C79.4297 228.232 80.0703 228.607 80.5859 229.086C81.1016 229.56 81.4896 230.122 81.75 230.773C82.0156 231.424 82.1484 232.13 82.1484 232.891C82.1484 233.37 82.0938 233.854 81.9844 234.344C81.8802 234.833 81.7161 235.305 81.4922 235.758C81.2682 236.206 80.9844 236.628 80.6406 237.023C80.2969 237.419 79.8854 237.766 79.4062 238.062C78.9323 238.354 78.388 238.583 77.7734 238.75C77.1641 238.917 76.4818 239 75.7266 239H71.9375V227.555ZM73.875 237.625H76.0156C76.7135 237.625 77.3203 237.51 77.8359 237.281C78.3516 237.047 78.7786 236.732 79.1172 236.336C79.4557 235.935 79.7083 235.466 79.875 234.93C80.0417 234.388 80.125 233.807 80.125 233.188C80.125 232.51 80.0286 231.909 79.8359 231.383C79.6432 230.857 79.3594 230.411 78.9844 230.047C78.6146 229.682 78.1589 229.406 77.6172 229.219C77.0755 229.026 76.4583 228.93 75.7656 228.93H73.875V237.625ZM84.8281 239V227.555H86.7656V232.359H92.4531V227.555H94.3906V239H92.4531V233.734H86.7656V239H84.8281ZM102.922 237.781C103.484 237.781 103.995 237.664 104.453 237.43C104.911 237.195 105.302 236.878 105.625 236.477C105.953 236.07 106.206 235.596 106.383 235.055C106.56 234.513 106.648 233.935 106.648 233.32C106.648 232.669 106.549 232.068 106.352 231.516C106.159 230.958 105.891 230.477 105.547 230.07C105.203 229.664 104.797 229.346 104.328 229.117C103.859 228.888 103.352 228.773 102.805 228.773C102.237 228.773 101.724 228.893 101.266 229.133C100.807 229.372 100.417 229.698 100.094 230.109C99.7708 230.516 99.5208 230.99 99.3438 231.531C99.1719 232.073 99.0859 232.648 99.0859 233.258C99.0859 233.909 99.1823 234.51 99.375 235.062C99.5677 235.615 99.8333 236.091 100.172 236.492C100.516 236.893 100.922 237.208 101.391 237.438C101.859 237.667 102.37 237.781 102.922 237.781ZM102.656 239.156C102.151 239.156 101.661 239.099 101.188 238.984C100.714 238.865 100.268 238.695 99.8516 238.477C99.4401 238.253 99.0625 237.979 98.7188 237.656C98.3802 237.333 98.0859 236.964 97.8359 236.547C97.5911 236.13 97.401 235.672 97.2656 235.172C97.1302 234.667 97.0625 234.125 97.0625 233.547C97.0625 232.948 97.1354 232.38 97.2812 231.844C97.4271 231.307 97.6302 230.812 97.8906 230.359C98.1562 229.906 98.474 229.497 98.8438 229.133C99.2135 228.763 99.6198 228.451 100.062 228.195C100.51 227.94 100.99 227.745 101.5 227.609C102.01 227.469 102.542 227.398 103.094 227.398C103.839 227.398 104.547 227.526 105.219 227.781C105.896 228.031 106.49 228.398 107 228.883C107.51 229.362 107.917 229.948 108.219 230.641C108.521 231.333 108.672 232.12 108.672 233C108.672 233.594 108.599 234.159 108.453 234.695C108.312 235.232 108.112 235.729 107.852 236.188C107.591 236.641 107.279 237.052 106.914 237.422C106.549 237.786 106.143 238.099 105.695 238.359C105.253 238.615 104.773 238.812 104.258 238.953C103.747 239.089 103.214 239.156 102.656 239.156ZM111.344 239V227.555H113.281V237.625H117.867L117.609 239H111.344ZM120.125 227.555H124.195C125.201 227.555 126.086 227.69 126.852 227.961C127.617 228.232 128.258 228.607 128.773 229.086C129.289 229.56 129.677 230.122 129.938 230.773C130.203 231.424 130.336 232.13 130.336 232.891C130.336 233.37 130.281 233.854 130.172 234.344C130.068 234.833 129.904 235.305 129.68 235.758C129.456 236.206 129.172 236.628 128.828 237.023C128.484 237.419 128.073 237.766 127.594 238.062C127.12 238.354 126.576 238.583 125.961 238.75C125.352 238.917 124.669 239 123.914 239H120.125V227.555ZM122.062 237.625H124.203C124.901 237.625 125.508 237.51 126.023 237.281C126.539 237.047 126.966 236.732 127.305 236.336C127.643 235.935 127.896 235.466 128.062 234.93C128.229 234.388 128.312 233.807 128.312 233.188C128.312 232.51 128.216 231.909 128.023 231.383C127.831 230.857 127.547 230.411 127.172 230.047C126.802 229.682 126.346 229.406 125.805 229.219C125.263 229.026 124.646 228.93 123.953 228.93H122.062V237.625ZM133.016 239V227.555H139.977L139.719 228.93H134.953V232.383H139.172L138.922 233.719H134.953V237.625H140.086L139.828 239H133.016ZM144.641 234.547V239H142.703V227.555H146.227C146.852 227.555 147.411 227.635 147.906 227.797C148.406 227.953 148.828 228.169 149.172 228.445C149.516 228.716 149.779 229.034 149.961 229.398C150.148 229.763 150.242 230.154 150.242 230.57C150.242 230.94 150.174 231.286 150.039 231.609C149.904 231.932 149.727 232.232 149.508 232.508C149.289 232.779 149.042 233.026 148.766 233.25C148.495 233.469 148.224 233.659 147.953 233.82L151.266 239H148.977L146.531 234.547H144.641ZM144.641 233.211H146.992C147.185 233.107 147.362 232.977 147.523 232.82C147.685 232.664 147.823 232.49 147.938 232.297C148.057 232.099 148.148 231.888 148.211 231.664C148.273 231.44 148.305 231.208 148.305 230.969C148.305 230.682 148.255 230.414 148.156 230.164C148.057 229.914 147.909 229.698 147.711 229.516C147.518 229.333 147.273 229.19 146.977 229.086C146.685 228.982 146.344 228.93 145.953 228.93H144.641V233.211ZM156.719 239V227.555H159.453L164.32 234.844L165.125 236.352H165.281L165.18 234.648V227.555H166.844V239H165.023L159.172 230.273L158.438 228.828H158.281L158.383 230.492V239H156.719ZM176.227 236.047H171.641L170.68 239H168.945L173 227.555H175.195L179.25 239H177.203L176.227 236.047ZM175.797 234.719L174.438 230.484L174.008 228.852H173.852L173.43 230.484L172.055 234.719H175.797ZM181.086 239L181.961 227.555H184.797L187.25 234.867L187.688 236.57H187.844L188.289 234.867L190.75 227.555H193.664L194.547 239H192.547L192.016 230.445L191.969 228.664H191.812L191.344 230.367L188.555 238.766H186.789L183.977 230.383L183.492 228.664H183.336L183.297 230.43L182.773 239H181.086ZM197.406 239V227.555H204.367L204.109 228.93H199.344V232.383H203.562L203.312 233.719H199.344V237.625H204.477L204.219 239H197.406Z" fill="#CF2323"/>
<g clip-path="url(#clip0)">
<path d="M77 146L77 112C77 107.582 73.4183 104 69 104L45 104C40.5817 104 37 107.582 37 112L37 146C37 150.418 40.5817 154 45 154L69 154C73.4183 154 77 150.418 77 146Z" fill="#CF2323"/>
<path d="M64.5 104L64.5 122" stroke="black" stroke-opacity="0.11"/>
<path d="M64.5 137L64.5 154" stroke="black" stroke-opacity="0.11"/>
<path d="M77 136.5L37 136.5" stroke="black" stroke-opacity="0.11"/>
<path d="M50.5 104L50.5 122" stroke="black" stroke-opacity="0.11"/>
<path d="M50.5 136L50.5 154" stroke="black" stroke-opacity="0.11"/>
<path d="M77 122.5L37 122.5" stroke="black" stroke-opacity="0.11"/>
<g opacity="0.5">
<path opacity="0.5" d="M94.499 136.849C93.8342 137.527 92.7558 137.527 92.0902 136.849C91.4246 136.17 91.4246 135.069 92.0902 134.391C95.0058 131.417 95.0058 126.578 92.0902 123.604C91.4246 122.925 91.4246 121.824 92.0902 121.146C92.4228 120.807 92.8576 120.638 93.295 120.638C93.7307 120.638 94.1668 120.807 94.499 121.146C98.7432 125.476 98.7432 132.519 94.499 136.849Z" fill="#DB0707"/>
<path opacity="0.5" d="M99.9269 142.819C99.2618 143.497 98.1829 143.497 97.5173 142.819C96.8517 142.14 96.8517 141.04 97.5173 140.361C103.661 134.096 103.661 123.9 97.5173 117.635C96.8517 116.956 96.8517 115.855 97.5173 115.178C97.8499 114.839 98.2864 114.668 98.7221 114.668C99.1587 114.668 99.5939 114.839 99.9269 115.178C103.546 118.869 105.539 123.777 105.539 128.998C105.539 134.218 103.546 139.127 99.9269 142.819Z" fill="#DB0707"/>
<path opacity="0.5" d="M105.98 148.287C105.314 148.965 104.236 148.965 103.57 148.287C102.905 147.608 102.905 146.508 103.57 145.83C107.978 141.333 110.406 135.355 110.406 128.997C110.406 122.639 107.978 116.662 103.57 112.167C102.905 111.487 102.905 110.387 103.57 109.709C103.903 109.37 104.339 109.2 104.775 109.2C105.211 109.2 105.647 109.37 105.98 109.709C111.031 114.861 113.812 121.712 113.812 128.997C113.812 136.284 111.031 143.135 105.98 148.287Z" fill="#DB0707"/>
</g>
</g>
<path d="M40.87 32.75V36.89H47.44V38.24H40.87V42.65H49.24V44H38.26V31.4H49.24V32.75H40.87ZM57.1593 42.47H57.3393L61.8573 31.4H64.5393L59.4093 44H55.0893L49.9593 31.4H52.6413L57.1593 42.47ZM68.5907 44H65.9807V31.4H68.5907V44ZM81.4635 42.65V44H71.1135V31.4H73.7235V42.65H81.4635ZM89.0186 43.01C89.8346 43.01 90.6146 42.872 91.3586 42.596C92.1146 42.308 92.8346 41.846 93.5186 41.21L94.4186 42.29C93.7346 42.926 92.9066 43.43 91.9346 43.802C90.9626 44.174 89.9306 44.36 88.8386 44.36C87.7106 44.36 86.6906 44.216 85.7786 43.928C84.8786 43.64 84.1046 43.214 83.4566 42.65C82.8206 42.086 82.3286 41.39 81.9806 40.562C81.6326 39.734 81.4586 38.78 81.4586 37.7C81.4586 36.62 81.6266 35.666 81.9626 34.838C82.3106 34.01 82.7966 33.314 83.4206 32.75C84.0566 32.186 84.8186 31.76 85.7066 31.472C86.5946 31.184 87.5786 31.04 88.6586 31.04C89.7506 31.04 90.7826 31.226 91.7546 31.598C92.7266 31.97 93.5546 32.474 94.2386 33.11L93.3386 34.19C92.6546 33.554 91.9346 33.098 91.1786 32.822C90.4346 32.534 89.6546 32.39 88.8386 32.39C88.1906 32.39 87.5846 32.498 87.0206 32.714C86.4566 32.918 85.9706 33.236 85.5626 33.668C85.1546 34.1 84.8306 34.652 84.5906 35.324C84.3626 35.984 84.2486 36.776 84.2486 37.7C84.2486 38.624 84.3626 39.422 84.5906 40.094C84.8306 40.754 85.1606 41.3 85.5806 41.732C86.0126 42.164 86.5166 42.488 87.0926 42.704C87.6806 42.908 88.3226 43.01 89.0186 43.01ZM102.334 32.3C101.722 32.3 101.146 32.408 100.606 32.624C100.078 32.84 99.6164 33.17 99.2204 33.614C98.8244 34.058 98.5064 34.622 98.2664 35.306C98.0384 35.978 97.9244 36.776 97.9244 37.7C97.9244 38.624 98.0384 39.428 98.2664 40.112C98.5064 40.784 98.8244 41.342 99.2204 41.786C99.6164 42.23 100.078 42.56 100.606 42.776C101.146 42.992 101.722 43.1 102.334 43.1C102.946 43.1 103.516 42.992 104.044 42.776C104.584 42.56 105.052 42.23 105.448 41.786C105.844 41.342 106.156 40.784 106.384 40.112C106.624 39.428 106.744 38.624 106.744 37.7C106.744 36.776 106.624 35.978 106.384 35.306C106.156 34.622 105.844 34.058 105.448 33.614C105.052 33.17 104.584 32.84 104.044 32.624C103.516 32.408 102.946 32.3 102.334 32.3ZM102.334 31.04C103.414 31.04 104.392 31.184 105.268 31.472C106.156 31.76 106.912 32.186 107.536 32.75C108.172 33.314 108.664 34.01 109.012 34.838C109.36 35.666 109.534 36.62 109.534 37.7C109.534 38.78 109.36 39.734 109.012 40.562C108.664 41.39 108.172 42.086 107.536 42.65C106.912 43.214 106.156 43.64 105.268 43.928C104.392 44.216 103.414 44.36 102.334 44.36C101.254 44.36 100.27 44.216 99.3824 43.928C98.4944 43.64 97.7324 43.214 97.0964 42.65C96.4724 42.086 95.9864 41.39 95.6384 40.562C95.3024 39.734 95.1344 38.78 95.1344 37.7C95.1344 36.62 95.3024 35.666 95.6384 34.838C95.9864 34.01 96.4724 33.314 97.0964 32.75C97.7324 32.186 98.4944 31.76 99.3824 31.472C100.27 31.184 101.254 31.04 102.334 31.04ZM118.181 31.4C119.081 31.4 119.885 31.502 120.593 31.706C121.313 31.898 121.919 32.186 122.411 32.57C122.903 32.942 123.281 33.404 123.545 33.956C123.809 34.496 123.941 35.114 123.941 35.81C123.941 36.77 123.701 37.58 123.221 38.24C122.741 38.9 122.051 39.404 121.151 39.752L124.121 44H121.151L118.505 40.22H118.181H114.311V44H111.701V31.4H118.181ZM114.311 32.75V38.87H118.181C119.129 38.87 119.861 38.624 120.377 38.132C120.893 37.628 121.151 36.854 121.151 35.81C121.151 34.766 120.893 33.998 120.377 33.506C119.861 33.002 119.129 32.75 118.181 32.75H114.311ZM132.578 31.4C133.478 31.4 134.282 31.502 134.99 31.706C135.71 31.898 136.316 32.186 136.808 32.57C137.3 32.942 137.678 33.404 137.942 33.956C138.206 34.496 138.338 35.114 138.338 35.81C138.338 36.506 138.206 37.13 137.942 37.682C137.678 38.222 137.3 38.684 136.808 39.068C136.316 39.44 135.71 39.728 134.99 39.932C134.282 40.124 133.478 40.22 132.578 40.22H128.708V44H126.098V31.4H132.578ZM128.708 32.75V38.87H132.578C133.526 38.87 134.258 38.624 134.774 38.132C135.302 37.628 135.566 36.854 135.566 35.81C135.566 34.766 135.302 33.998 134.774 33.506C134.258 33.002 133.526 32.75 132.578 32.75H128.708ZM146.612 31.4H152.732C153.656 31.4 154.454 31.484 155.126 31.652C155.81 31.808 156.374 32.036 156.818 32.336C157.262 32.624 157.592 32.972 157.808 33.38C158.024 33.788 158.132 34.238 158.132 34.73C158.132 35.366 157.952 35.918 157.592 36.386C157.232 36.854 156.692 37.202 155.972 37.43C156.872 37.61 157.574 37.964 158.078 38.492C158.594 39.008 158.852 39.674 158.852 40.49C158.852 41.57 158.402 42.428 157.502 43.064C156.614 43.688 155.204 44 153.272 44H146.612V31.4ZM149.222 38.24V42.65H153.272C154.172 42.65 154.862 42.47 155.342 42.11C155.822 41.75 156.062 41.21 156.062 40.49C156.062 39.722 155.822 39.158 155.342 38.798C154.862 38.426 154.172 38.24 153.272 38.24H149.222ZM152.732 36.89C154.472 36.89 155.342 36.17 155.342 34.73C155.342 34.094 155.12 33.608 154.676 33.272C154.244 32.924 153.596 32.75 152.732 32.75H149.222V36.89H152.732ZM164.338 39.59H169.918L167.218 32.93H167.038L164.338 39.59ZM169.198 31.4L174.328 44H171.736L170.548 40.94H163.708L162.52 44H159.928L165.058 31.4H169.198ZM188.734 31.4V44H185.314L178.564 33.74H178.384V44H175.774V31.4H179.194L185.944 41.66H186.124V31.4H188.734ZM199.36 37.61L204.13 44H201.16L197.02 38.42H193.87V44H191.26V31.4H193.87V37.07H196.84L200.98 31.4H203.86L199.36 37.61Z" fill="#CF2323"/>
<path fill-rule="evenodd" clip-rule="evenodd" d="M441.5 51C450.642 51 458.053 43.6127 458.053 34.5C458.053 32.5729 457.721 30.7229 457.112 29.0037C458.941 26.1891 460 22.8468 460 19.2618C460 18.613 459.083 18.5515 458.854 19.1587C458.012 21.389 456.736 23.4127 455.127 25.1312C452.141 20.8229 447.151 18 441.5 18C435.849 18 430.859 20.8229 427.873 25.1312C426.264 23.4127 424.988 21.389 424.146 19.1587C423.917 18.5515 423 18.613 423 19.2618C423 22.8468 424.059 26.1891 425.888 29.0037C425.279 30.7229 424.947 32.5729 424.947 34.5C424.947 43.6127 432.358 51 441.5 51ZM436.158 30.7633C436.613 30.5983 437.12 30.7915 437.349 31.2167L439.934 36.021C440.36 36.813 439.571 37.7071 438.729 37.3865L431.004 34.446C430.162 34.1255 430.171 32.9345 431.019 32.6272L436.158 30.7633ZM447.622 30.7632C447.167 30.5982 446.66 30.7914 446.431 31.2166L443.846 36.0209C443.42 36.8128 444.209 37.7069 445.052 37.3863L452.776 34.446C453.618 34.1255 453.609 32.9345 452.761 32.6272L447.622 30.7632Z" fill="#CF2323"/>
<path d="M399 93L407.083 117.875H433.238L412.078 133.249L420.16 158.125L399 142.751L377.84 158.125L385.922 133.249L364.762 117.875H390.917L399 93Z" fill="#C4C4C4"/>
<defs>
<clipPath id="clip0">
<rect width="50" height="84" fill="white" transform="translate(121 104) rotate(90)"/>
</clipPath>
</defs>
</svg>
