<svg width="59" height="63" viewBox="0 0 59 63" fill="none" xmlns="http://www.w3.org/2000/svg">
<g clip-path="url(#clip0)">
<path d="M30.4874 26.6431C28.5671 26.0094 28.9556 18.6659 28.985 18.1554C29.543 8.70444 34.7732 -0.637494 37.5802 0.0333598C38.4681 0.245006 38.9787 1.42509 39.2679 2.09466C40.1874 4.22139 39.6068 6.34426 38.7031 9.83963C36.3456 18.9045 36.5376 18.798 35.9005 20.1205C35.5436 20.8619 32.4089 27.2767 30.4874 26.6431Z" fill="#F9DB9D"/>
<path d="M45.8568 8.00277C47.0497 7.00867 49.4072 5.04485 50.6079 5.90298C51.4246 6.48533 51.3682 8.13104 51.3151 9.71646C51.2388 11.8762 50.7687 13.9946 49.9347 15.9376C47.8505 20.6412 44.3838 23.1502 41.5168 25.173C38.0432 27.6204 34.8295 29.8857 33.6569 28.7351C31.9411 27.0509 34.8317 18.2772 39 14.6638C39.6202 14.1251 40.7577 13.2785 42.3889 11.6354C44.2177 9.78701 44.447 9.17644 45.8568 8.00277Z" fill="#F9DB9D"/>
<path d="M37.6435 33.2823C39.6057 34.8652 42.0061 34.2097 45.9484 33.0617C49.3938 32.0586 51.9038 30.3501 56.9238 26.933C57.7676 26.3596 58.8949 25.5682 58.9932 24.3547C59.1536 22.3614 56.4211 20.6593 56.2901 20.5797C52.7261 18.4145 48.35 20.6067 43.9524 22.8091C40.0756 24.7498 35.7379 26.9227 35.7853 29.9691C35.8147 31.6995 37.2504 32.9617 37.6435 33.2823Z" fill="#F9DB9D"/>
<path d="M34.6002 33.5748C33.5316 35.3872 36.3782 40.0268 39.3988 42.5063C39.9207 42.9347 43.0452 45.4218 47.4394 45.2435C49.8308 45.1473 53.7754 44.2174 54.0668 42.183C54.1098 41.8893 54.1549 41.0183 52.3125 39.1109C49.9742 36.6905 47.0564 35.1499 42.6306 34.052C37.9698 32.8975 35.3796 32.2562 34.6002 33.5748Z" fill="#F9DB9D"/>
<path d="M39.7479 44.9331C42.7674 49.8715 43.2689 51.6647 42.7097 53.136C42.1054 54.724 40.4144 55.5423 39.1187 55.668C35.522 56.0144 32.9137 51.2132 32.454 50.3602C29.2843 44.5265 30.162 36.0504 32.3071 35.3385C33.6152 34.9036 35.6598 38.2464 39.7479 44.9331Z" fill="#F9DB9D"/>
<path d="M27.9071 35.6258C29.8851 36.0004 30.2488 43.3452 30.2714 43.8569C30.6882 53.3182 26.4544 63.2873 23.5965 62.9936C22.6928 62.9013 22.0648 61.7968 21.7089 61.1709C20.5793 59.1801 20.9317 56.9957 21.4751 53.4028C22.8849 44.0878 22.7052 44.2187 23.2011 42.8205C23.4824 42.0381 25.9359 35.2513 27.9071 35.6258Z" fill="#F9DB9D"/>
<path d="M12.4744 53.5311C11.2567 54.4854 8.85061 56.371 7.67129 55.4731C6.8704 54.8638 6.96754 53.2206 7.0613 51.6378C7.19209 49.4828 7.7148 47.382 8.59645 45.468C10.7992 40.8349 14.3281 38.4413 17.2459 36.516C20.7793 34.184 24.0496 32.0265 25.1927 33.2143C26.8646 34.9537 23.7525 43.6286 19.4938 47.1034C18.8601 47.6165 17.7023 48.4297 16.0327 50.019C14.1575 51.8007 13.9124 52.4036 12.4744 53.5311Z" fill="#F9DB9D"/>
<path d="M22.0797 28.6646C20.2723 26.8585 17.8244 27.228 13.7996 27.9078C10.2854 28.494 7.62851 29.8985 2.32384 32.7077C1.43258 33.1797 0.239703 33.8339 0.031854 35.0294C-0.30703 36.9919 2.25268 39.0057 2.3758 39.1019C5.72285 41.6674 10.2763 40.0075 14.8501 38.3323C18.8829 36.8572 23.3957 35.2064 23.625 32.1753C23.756 30.4437 22.4423 29.0186 22.0797 28.6646Z" fill="#F9DB9D"/>
<path d="M24.3761 28.3388C25.4899 26.5622 22.763 21.8316 19.8068 19.2534C19.2962 18.8083 16.2361 16.2198 11.8396 16.2531C9.44598 16.2724 5.4799 17.0766 5.1365 19.0956C5.0868 19.3868 5.02354 20.25 6.81172 22.2241C9.08789 24.719 11.9661 26.3557 16.3615 27.5986C20.9918 28.9083 23.5639 29.6356 24.3761 28.3388Z" fill="#F9DB9D"/>
<path d="M16.9872 15.0589C13.1917 9.188 12.5716 7.09463 13.3024 5.43866C14.0932 3.65313 16.2586 2.82194 17.9146 2.76165C22.5077 2.5949 25.7813 8.27728 26.363 9.2919C30.3404 16.2018 29.1215 25.8862 26.3766 26.5648C24.6957 26.983 22.1258 23.0079 16.9872 15.0589Z" fill="#F9DB9D"/>
<path d="M24.8574 30.0755C24.2768 31.9893 18.5519 31.2684 18.1532 31.2146C10.787 30.2359 3.71331 24.5445 4.36171 21.7482C4.56617 20.8632 5.51166 20.4001 6.0471 20.1384C7.75169 19.3047 9.38624 19.9794 12.0804 21.0504C19.0648 23.8275 18.9891 23.6287 19.9956 24.329C20.5649 24.7202 25.4392 28.1643 24.8574 30.0755Z" fill="#DEA44D"/>
<path d="M10.963 13.7544C10.2389 12.5076 8.80657 10.0436 9.53065 8.86988C10.022 8.07204 11.3064 8.20159 12.5445 8.32601C14.2303 8.49819 15.8662 9.06601 17.3487 9.99353C20.9341 12.3024 22.7438 15.9094 24.1964 18.8891C25.9564 22.4986 27.5853 25.8401 26.6341 26.9701C25.2413 28.6261 18.5088 25.3244 15.8667 20.9619C15.4736 20.3116 14.8613 19.1277 13.6481 17.414C12.2824 15.4848 11.8147 15.227 10.963 13.7544Z" fill="#DEA44D"/>
<path d="M30.3629 23.1489C31.6879 21.239 31.2813 18.7878 30.5572 14.7652C29.9246 11.2467 28.699 8.64029 26.2488 3.4261C25.8377 2.55001 25.2683 1.37377 24.3285 1.22626C22.7764 0.969719 21.3248 3.6634 21.2559 3.79167C19.4068 7.28832 20.9272 11.7983 22.4556 16.3288C23.8021 20.3244 25.3101 24.7947 27.6947 24.8806C29.0469 24.9268 30.0986 23.5338 30.3629 23.1489Z" fill="#DEA44D"/>
<path d="M30.4603 26.2274C31.8317 27.3819 35.5843 24.719 37.6571 21.7829C38.0152 21.2698 40.0982 18.2349 40.1524 13.7968C40.1829 11.3802 39.6249 7.36144 38.0514 6.97791C37.8254 6.92147 37.1477 6.83682 35.5719 8.6108C33.5758 10.8619 32.2429 13.7416 31.1878 18.1515C30.0774 22.8052 29.4606 25.3886 30.4603 26.2274Z" fill="#DEA44D"/>
<path d="M39.5707 21.543C43.5661 18.7211 44.9928 18.2888 46.1168 18.9186C47.3311 19.5972 47.8971 21.3391 47.9377 22.65C48.0507 26.2929 44.1795 28.7121 43.4927 29.1418C38.7912 32.0804 32.1966 30.8208 31.7447 28.6287C31.4567 27.2844 34.161 25.3706 39.5707 21.543Z" fill="#DEA44D"/>
<path d="M31.7693 33.0694C32.15 31.0915 37.9099 31.0491 38.3109 31.0491C45.7279 31.0491 53.3348 35.7554 52.9812 38.6235C52.8682 39.5304 51.9781 40.1153 51.472 40.4462C49.8657 41.5006 48.1736 41.0465 45.3879 40.3398C38.1652 38.5068 38.2601 38.6941 37.1881 38.1322C36.5882 37.8167 31.3898 35.0435 31.7693 33.0694Z" fill="#DEA44D"/>
<path d="M45.0911 49.4238C45.7836 50.6937 47.1515 53.2027 46.3981 54.352C45.8864 55.1332 44.6065 54.9626 43.373 54.7984C41.6924 54.5721 40.0715 53.9523 38.6128 52.9782C35.0861 50.5526 33.3702 46.8879 31.9932 43.862C30.3259 40.1961 28.7817 36.8072 29.7623 35.7027C31.1957 34.093 37.8424 37.614 40.3727 42.0611C40.7489 42.7243 41.3306 43.9275 42.4998 45.6809C43.8124 47.6486 44.2733 47.9231 45.0911 49.4238Z" fill="#DEA44D"/>
<path d="M26.0637 38.6402C24.5715 40.3834 24.7522 42.8731 25.1058 46.9559C25.4153 50.5308 26.3958 53.2668 28.3579 58.7401C28.6878 59.6598 29.1487 60.8912 30.0727 61.1542C31.5932 61.5852 33.2819 59.0903 33.361 58.9736C35.5197 55.7117 34.4183 51.0478 33.3113 46.3621C32.3353 42.2305 31.243 37.6063 28.8798 37.2407C27.5333 37.0291 26.3619 38.2913 26.0637 38.6402Z" fill="#DEA44D"/>
<path d="M25.9156 36.3108C24.5747 35.1089 20.7544 37.6499 18.6081 40.5181C18.2376 41.0132 16.0778 43.9814 15.9106 48.4182C15.8191 50.8336 16.2743 54.8677 17.8377 55.3038C18.0636 55.3666 18.7414 55.4731 20.3579 53.7517C22.4104 51.5711 23.8168 48.7376 24.9825 44.3598C26.2127 39.7484 26.8904 37.1869 25.9156 36.3108Z" fill="#DEA44D"/>
<path d="M16.6902 40.6989C12.6236 43.3926 11.1901 43.7774 10.0797 43.1079C8.88347 42.3895 8.36497 40.631 8.35481 39.3175C8.3356 35.6733 12.2644 33.3824 12.9625 32.9758C17.7374 30.191 24.2925 31.6661 24.6981 33.8737C24.9466 35.2269 22.1948 37.0509 16.6902 40.6989Z" fill="#DEA44D"/>
<path d="M30.3212 30.8003C30.5189 29.6638 33.814 29.5625 34.0433 29.5573C38.2862 29.456 42.6894 32.0471 42.5154 33.694C42.4601 34.2135 41.9563 34.5599 41.6716 34.7561C40.7679 35.3808 39.7897 35.1409 38.189 34.7779C34.0377 33.8262 34.0942 33.9313 33.4751 33.6235C33.1283 33.4516 30.1247 31.9355 30.3212 30.8003Z" fill="#C27F2D"/>
<path d="M39.3287 38.812C39.8257 39.4534 40.8073 40.7233 40.4786 41.4531C40.2527 41.9495 39.5173 41.9906 38.8079 42.0303C37.8406 42.084 36.874 41.9093 35.9692 41.5173C33.7766 40.5283 32.5024 38.6453 31.4722 37.0855C30.2296 35.1961 29.0706 33.4478 29.5315 32.7243C30.2093 31.6609 34.251 32.9321 36.0505 35.1704C36.5237 35.8038 37.0255 36.4087 37.554 36.9829C38.4589 37.9488 38.7413 38.0539 39.3287 38.812Z" fill="#C27F2D"/>
<path d="M28.8699 35.6258C28.3717 36.8675 28.4644 38.1143 28.644 40.1538C28.7953 41.9367 29.1704 43.1322 29.9216 45.5258C30.0481 45.9272 30.2232 46.4621 30.5485 46.3877C31.0839 46.2672 31.6431 44.5919 31.6691 44.5111C32.3819 42.3305 31.9413 40.1628 31.4974 37.9847C31.1065 36.0607 30.6694 33.9147 29.8414 34.2649C29.3635 34.4573 28.9704 35.377 28.8699 35.6258Z" fill="#C27F2D"/>
<path d="M27.4113 33.4773C26.555 32.9437 24.611 34.7895 23.6395 36.6391C22.9114 38.0752 22.6092 39.7391 22.7776 41.3851C22.9279 42.7563 23.5209 44.9844 24.4393 45.0626C24.5726 45.0729 24.9634 45.0626 25.7327 43.9146C26.7075 42.4613 27.2656 40.7079 27.5581 38.1168C27.8654 35.3859 28.0371 33.8672 27.4113 33.4773Z" fill="#C27F2D"/>
<path d="M22.572 36.9483C20.5026 38.907 19.7254 39.2764 19.0431 39.0198C18.3077 38.7428 17.8661 37.8064 17.7531 37.0663C17.4368 35.014 19.4633 33.2951 19.8237 32.9911C22.2851 30.9055 26.1077 31.0325 26.5212 32.2343C26.7776 32.9706 25.3735 34.2969 22.572 36.9483Z" fill="#C27F2D"/>
<path d="M26.2218 30.2372C26.1303 31.0068 22.9888 31.4262 22.7697 31.4545C18.7223 31.9675 14.2976 30.7259 14.3202 29.6189C14.3281 29.2687 14.781 28.9865 15.0363 28.8262C15.8519 28.3131 16.8019 28.3695 18.3642 28.4414C22.4127 28.6299 22.3506 28.5697 22.9674 28.6979C23.3141 28.7813 26.3133 29.465 26.2218 30.2372Z" fill="#C27F2D"/>
<path d="M19.276 23.6621C18.9032 23.1028 18.1656 21.9945 18.4423 21.3789C18.631 20.9594 19.2093 20.9389 19.7674 20.9196C20.5282 20.8946 21.2842 21.0648 21.9792 21.4173C23.6736 22.3088 24.6236 23.9468 25.3906 25.3026C26.3191 26.9445 27.1788 28.4645 26.7992 29.0764C26.2423 29.9742 23.1042 28.8019 21.751 26.8496C21.3986 26.3007 21.0216 25.7728 20.6214 25.268C19.9357 24.4137 19.7165 24.3188 19.276 23.6621Z" fill="#C27F2D"/>
<path d="M29.047 26.053C29.7711 24.9306 29.4988 23.5389 29.0142 21.2531C28.5917 19.2547 27.8462 17.7898 26.3562 14.864C26.1055 14.3714 25.7598 13.7095 25.2176 13.648C24.3252 13.5389 23.5412 15.1038 23.504 15.1795C22.5065 17.2203 23.4531 19.7665 24.4076 22.3242C25.247 24.5792 26.1857 27.1022 27.5502 27.0984C28.324 27.0971 28.9013 26.2775 29.047 26.053Z" fill="#C27F2D"/>
<path d="M29.4888 27.3447C29.9949 27.836 31.268 26.1236 31.9424 24.4086C32.4625 23.0192 32.7104 21.5179 32.6687 20.0089C32.6325 18.739 32.3581 16.6739 31.7944 16.6085C31.713 16.5982 31.4724 16.6085 30.9517 17.6731C30.2909 19.0212 29.8752 20.6413 29.5882 23.0464C29.2866 25.5784 29.1194 26.9855 29.4888 27.3447Z" fill="#C27F2D"/>
<path d="M34.2173 24.0469C36.3353 22.1575 37.1227 21.8137 37.7971 22.092C38.5257 22.3935 38.9425 23.344 39.0396 24.0866C39.3028 26.1518 37.2323 27.8001 36.8663 28.0925C34.3529 30.0974 30.5348 29.8447 30.1518 28.63C29.9157 27.8873 31.3492 26.6123 34.2173 24.0469Z" fill="#C27F2D"/>
<path d="M24.784 23.4222C26.5913 21.9394 28.9545 22.5166 29.4154 22.641C30.3552 22.8976 31.3899 23.7852 33.4198 25.5541C35.4848 27.3498 36.524 28.2708 36.8143 29.2046C37.4605 31.2749 36.5365 33.3875 36.1095 34.3624C35.7706 35.1512 35.147 36.5622 33.7949 37.4883C32.5241 38.358 31.3165 38.3131 29.1635 38.1989C26.2954 38.0463 24.8416 37.9693 23.3448 36.7777C23.1697 36.6392 20.4688 34.4278 20.6552 31.5917C20.706 30.8029 20.9342 30.6836 22.344 27.8976C24.113 24.4022 24.0339 24.0366 24.784 23.4222Z" fill="#5C3C28"/>
<path d="M26.0648 25.8991C26.2907 25.8529 26.3958 25.9542 26.7539 26.0415C27.0626 26.109 27.3775 26.1332 27.6914 26.1133C28.6629 26.1133 30.2274 26.5661 30.6284 26.6815C32.3229 27.1638 33.1723 27.3844 33.4446 27.818C33.9303 28.5876 33.7066 29.6138 33.3192 31.3698C32.9317 33.1258 32.7329 34.0263 31.9422 34.7792C31.1514 35.5322 29.9179 35.9837 28.8143 35.6322C27.5243 35.2205 27.6338 34.1032 26.0614 33.0745C24.3478 31.9522 23.2961 32.6782 22.8081 31.7251C22.1303 30.386 23.5988 27.7923 24.4348 27.1779C24.6471 27.0214 24.96 26.8893 25.3735 26.4673C25.6694 26.171 25.7892 25.9568 26.0648 25.8991Z" fill="#6A4B3D"/>
<path d="M28.9691 28.984C28.8324 29.0841 28.759 29.0494 28.7251 29.1123C28.6325 29.2777 28.9646 29.9743 29.3791 29.9152C29.4762 29.8992 29.5667 29.8505 29.6392 29.7756C29.7117 29.7006 29.7627 29.6027 29.7858 29.4945C29.8558 29.0789 29.3577 28.7005 29.1679 28.7839C29.099 28.8108 29.0967 28.8891 28.9691 28.984Z" fill="#CAAFA9"/>
<path d="M30.4137 27.6384C30.3132 27.6204 30.1878 27.7667 30.1686 27.9026C30.1189 28.1964 30.5165 28.4709 30.6204 28.3991C30.7244 28.3272 30.608 27.6756 30.4137 27.6384Z" fill="#CAAFA9"/>
<path d="M29.3759 31.7764C29.4052 31.5943 29.4775 31.5571 29.4617 31.4891C29.4211 31.2992 28.7467 31.094 28.4993 31.4763C28.4429 31.5673 28.4118 31.6755 28.41 31.7868C28.4082 31.8982 28.4357 32.0075 28.4891 32.1009C28.7071 32.4447 29.2912 32.2933 29.3691 32.0791C29.3917 31.9996 29.3431 31.9457 29.3759 31.7764Z" fill="#CAAFA9"/>
<path d="M28.7093 33.8108C28.7895 33.7402 28.7816 33.5414 28.7093 33.426C28.5545 33.1823 28.1061 33.3221 28.0812 33.4567C28.0564 33.5914 28.5523 33.9467 28.7093 33.8108Z" fill="#CAAFA9"/>
<path d="M27.4464 30.545C27.5278 30.4745 27.5187 30.2757 27.4464 30.1602C27.2928 29.9178 26.8444 30.0563 26.8195 30.191C26.7947 30.3257 27.2906 30.6823 27.4464 30.545Z" fill="#CAAFA9"/>
<path d="M26.8906 27.5768C26.6805 27.6551 26.5246 28.0502 26.6059 28.3298C26.7302 28.7582 27.4034 28.9147 27.7796 28.6453C27.8124 28.6222 28.0835 28.4209 28.0778 28.104C28.0779 28.0234 28.0604 27.9439 28.0266 27.8729C27.9929 27.8019 27.9441 27.7416 27.8846 27.6974C27.7717 27.623 27.6892 27.6974 27.4678 27.6974C27.1278 27.6948 27.0521 27.5165 26.8906 27.5768Z" fill="#CAAFA9"/>
<path d="M30.9572 33.1027C31.0227 33.2721 30.9809 33.349 31.0272 33.3952C31.1549 33.5235 31.818 33.2669 31.8304 32.7936C31.8326 32.6823 31.8052 32.5729 31.7518 32.4795C31.6984 32.3862 31.6215 32.3133 31.5311 32.2703C31.182 32.124 30.7719 32.6204 30.8137 32.8475C30.8262 32.9296 30.8939 32.945 30.9572 33.1027Z" fill="#CAAFA9"/>
<path d="M30.0014 30.6438C29.9687 30.7541 30.0737 30.9131 30.1901 30.9619C30.4375 31.0658 30.7402 30.6656 30.695 30.5386C30.6498 30.4116 30.0636 30.4321 30.0014 30.6438Z" fill="#CAAFA9"/>
<path d="M29.3191 34.987C29.3519 35.2359 29.6693 35.4745 29.9269 35.4296C30.3188 35.3603 30.5651 34.6304 30.3923 34.1661C30.3776 34.1251 30.2465 33.789 29.9698 33.7441C29.8999 33.7309 29.8283 33.7376 29.7612 33.7635C29.6942 33.7895 29.6339 33.8339 29.5857 33.8929C29.5021 34.0147 29.5563 34.1135 29.5179 34.3611C29.4603 34.7369 29.2931 34.7933 29.3191 34.987Z" fill="#CAAFA9"/>
<path d="M31.8179 29.6638C31.6756 29.574 31.6677 29.4842 31.6067 29.4791C31.4338 29.4624 31.0419 30.1204 31.2859 30.5052C31.3439 30.5952 31.4242 30.6634 31.5166 30.7011C31.609 30.7388 31.7092 30.7443 31.8044 30.7169C32.1602 30.5886 32.2223 29.9165 32.0687 29.7638C32.0133 29.7138 31.9501 29.7484 31.8179 29.6638Z" fill="#CAAFA9"/>
<path d="M25.9869 29.7741C25.8446 29.6843 25.8367 29.5945 25.7757 29.5881C25.604 29.5727 25.2109 30.2294 25.456 30.6143C25.5136 30.7044 25.5938 30.7727 25.686 30.8105C25.7783 30.8482 25.8784 30.8536 25.9734 30.8259C26.3292 30.6976 26.3913 30.0255 26.2377 29.8741C26.1812 29.819 26.1191 29.8587 25.9869 29.7741Z" fill="#CAAFA9"/>
<path d="M33.6154 31.4866C33.5815 31.3762 33.4132 31.3224 33.2957 31.3583C33.0427 31.4455 33.0144 31.9727 33.1183 32.042C33.2223 32.1112 33.6786 31.6969 33.6154 31.4866Z" fill="#CAAFA9"/>
<path d="M31.7942 34.2957C31.6914 34.2957 31.5932 34.4611 31.5909 34.6009C31.5841 34.9011 32.0156 35.0974 32.1071 35.0063C32.1986 34.9152 31.9908 34.2944 31.7942 34.2957Z" fill="#CAAFA9"/>
<path d="M26.6965 31.7431C26.5372 31.5673 26.1576 31.5956 25.9769 31.8085C25.7013 32.1317 25.8933 32.8821 26.2785 33.1335C26.3124 33.1553 26.5959 33.3349 26.8433 33.1797C26.9062 33.142 26.9598 33.0871 26.9993 33.0199C27.0387 32.9527 27.0628 32.8753 27.0692 32.7949C27.0692 32.641 26.9766 32.5999 26.8749 32.3754C26.7168 32.0342 26.8207 31.8713 26.6965 31.7431Z" fill="#CAAFA9"/>
</g>
<defs>
<clipPath id="clip0">
<rect width="59" height="63" fill="white"/>
</clipPath>
</defs>
</svg>
