<svg width="487" height="309" viewBox="0 0 487 309" fill="none" xmlns="http://www.w3.org/2000/svg">
<path d="M465.221 308.009H18.7209C2.72086 304.409 -0.279138 291.843 0.220861 286.009V230.509V122.009V57.0093C0.054194 51.176 -0.179139 36.1093 0.220861 22.5093C0.620861 8.90934 15.3875 1.84266 22.7209 0.00932619H38.7209H349.221C377.888 0.175993 439.721 0.409326 457.721 0.00932619C475.721 -0.390674 484.221 12.176 486.221 18.5093V76.5093V234.509V282.009C486.221 302.409 472.221 307.843 465.221 308.009Z" fill="#C09F9F"/>
<g clip-path="url(#clip0)">
<path d="M432.487 66.643C430.567 66.0094 430.956 58.6659 430.985 58.1554C431.543 48.7044 436.773 39.3625 439.58 40.0334C440.468 40.245 440.979 41.4251 441.268 42.0947C442.187 44.2214 441.607 46.3443 440.703 49.8396C438.346 58.9045 438.538 58.798 437.901 60.1205C437.544 60.8619 434.409 67.2767 432.487 66.643Z" fill="#F9DB9D"/>
<path d="M447.857 48.0028C449.05 47.0087 451.407 45.0449 452.608 45.903C453.425 46.4854 453.368 48.1311 453.315 49.7165C453.239 51.8763 452.769 53.9946 451.935 55.9376C449.851 60.6413 446.384 63.1502 443.517 65.1731C440.043 67.6205 436.83 69.8857 435.657 68.7351C433.941 67.0509 436.832 58.2772 441 54.6639C441.62 54.1251 442.758 53.2785 444.389 51.6354C446.218 49.787 446.447 49.1765 447.857 48.0028Z" fill="#F9DB9D"/>
<path d="M439.643 73.2823C441.605 74.8652 444.006 74.2097 447.948 73.0617C451.394 72.0586 453.904 70.35 458.924 66.9329C459.767 66.3596 460.895 65.5681 460.993 64.3547C461.153 62.3614 458.421 60.6592 458.29 60.5797C454.726 58.4145 450.35 60.6066 445.952 62.809C442.075 64.7498 437.738 66.9227 437.785 69.9691C437.814 71.6995 439.25 72.9616 439.643 73.2823Z" fill="#F9DB9D"/>
<path d="M436.6 73.5748C435.531 75.3872 438.378 80.0268 441.399 82.5062C441.92 82.9347 445.045 85.4218 449.439 85.2435C451.831 85.1473 455.775 84.2174 456.067 82.183C456.11 81.8893 456.155 81.0183 454.312 79.1109C451.974 76.6905 449.056 75.1499 444.63 74.0519C439.97 72.8975 437.379 72.2562 436.6 73.5748Z" fill="#F9DB9D"/>
<path d="M441.748 84.9331C444.768 89.8715 445.269 91.6647 444.71 93.136C444.106 94.724 442.415 95.5424 441.119 95.6681C437.522 96.0144 434.914 91.2132 434.454 90.3602C431.285 84.5265 432.162 76.0504 434.307 75.3385C435.615 74.9037 437.66 78.2464 441.748 84.9331Z" fill="#F9DB9D"/>
<path d="M429.907 75.6258C431.885 76.0004 432.249 83.3451 432.271 83.8569C432.688 93.3182 428.454 103.287 425.597 102.994C424.693 102.901 424.065 101.797 423.709 101.171C422.579 99.1801 422.932 96.9957 423.475 93.4028C424.885 84.0878 424.705 84.2187 425.201 82.8205C425.482 82.0381 427.936 75.2513 429.907 75.6258Z" fill="#F9DB9D"/>
<path d="M414.475 93.5311C413.257 94.4854 410.851 96.371 409.672 95.4731C408.871 94.8638 408.968 93.2207 409.062 91.6378C409.192 89.4829 409.715 87.3821 410.597 85.468C412.799 80.8349 416.328 78.4414 419.246 76.516C422.78 74.1841 426.05 72.0266 427.193 73.2143C428.865 74.9537 425.753 83.6286 421.494 87.1035C420.86 87.6165 419.703 88.4298 418.033 90.019C416.158 91.8007 415.913 92.4036 414.475 93.5311Z" fill="#F9DB9D"/>
<path d="M424.08 68.6646C422.272 66.8585 419.824 67.2279 415.8 67.9078C412.285 68.494 409.629 69.8985 404.324 72.7077C403.433 73.1797 402.24 73.8339 402.032 75.0294C401.693 76.9919 404.253 79.0057 404.376 79.1019C407.723 81.6673 412.276 80.0075 416.85 78.3323C420.883 76.8572 425.396 75.2064 425.625 72.1753C425.756 70.4437 424.442 69.0186 424.08 68.6646Z" fill="#F9DB9D"/>
<path d="M426.376 68.3388C427.49 66.5622 424.763 61.8316 421.807 59.2534C421.296 58.8083 418.236 56.2198 413.84 56.2531C411.446 56.2724 407.48 57.0766 407.137 59.0956C407.087 59.3868 407.024 60.25 408.812 62.2241C411.088 64.719 413.966 66.3557 418.361 67.5987C422.992 68.9083 425.564 69.6356 426.376 68.3388Z" fill="#F9DB9D"/>
<path d="M418.987 55.059C415.192 49.188 414.572 47.0946 415.302 45.4387C416.093 43.6531 418.259 42.822 419.915 42.7617C424.508 42.5949 427.781 48.2773 428.363 49.2919C432.34 56.2018 431.122 65.8863 428.377 66.5648C426.696 66.983 424.126 63.0079 418.987 55.059Z" fill="#F9DB9D"/>
<path d="M426.857 70.0756C426.277 71.9893 420.552 71.2685 420.153 71.2146C412.787 70.2359 405.713 64.5445 406.362 61.7482C406.566 60.8632 407.512 60.4001 408.047 60.1384C409.752 59.3047 411.386 59.9794 414.08 61.0505C421.065 63.8275 420.989 63.6287 421.996 64.329C422.565 64.7203 427.439 68.1643 426.857 70.0756Z" fill="#DEA44D"/>
<path d="M412.963 53.7544C412.239 52.5076 410.806 50.0436 411.53 48.8699C412.022 48.0721 413.306 48.2016 414.544 48.326C416.23 48.4982 417.866 49.066 419.348 49.9935C422.934 52.3024 424.744 55.9094 426.196 58.8891C427.956 62.4986 429.585 65.8401 428.634 66.9701C427.241 68.6261 420.509 65.3244 417.866 60.9619C417.473 60.3116 416.861 59.1277 415.648 57.414C414.282 55.4848 413.814 55.227 412.963 53.7544Z" fill="#DEA44D"/>
<path d="M432.363 63.149C433.688 61.239 433.281 58.7878 432.557 54.7652C431.925 51.2467 430.699 48.6403 428.249 43.4261C427.838 42.55 427.268 41.3738 426.328 41.2263C424.776 40.9697 423.325 43.6634 423.256 43.7917C421.407 47.2883 422.927 51.7983 424.456 56.3288C425.802 60.3244 427.31 64.7947 429.695 64.8806C431.047 64.9268 432.099 63.5338 432.363 63.149Z" fill="#DEA44D"/>
<path d="M432.46 66.2274C433.832 67.3819 437.584 64.719 439.657 61.7829C440.015 61.2698 442.098 58.2349 442.152 53.7968C442.183 51.3801 441.625 47.3614 440.051 46.9779C439.825 46.9215 439.148 46.8368 437.572 48.6108C435.576 50.8619 434.243 53.7416 433.188 58.1515C432.077 62.8052 431.461 65.3886 432.46 66.2274Z" fill="#DEA44D"/>
<path d="M441.57 61.543C445.566 58.7211 446.993 58.2888 448.117 58.9186C449.331 59.5971 449.897 61.3391 449.937 62.65C450.05 66.2929 446.179 68.712 445.492 69.1417C440.791 72.0804 434.196 70.8208 433.744 68.6287C433.456 67.2844 436.161 65.3706 441.57 61.543Z" fill="#DEA44D"/>
<path d="M433.769 73.0694C434.15 71.0915 439.91 71.0491 440.311 71.0491C447.728 71.0491 455.335 75.7554 454.981 78.6235C454.868 79.5304 453.978 80.1153 453.472 80.4462C451.866 81.5006 450.174 81.0465 447.388 80.3398C440.165 78.5068 440.26 78.694 439.188 78.1322C438.588 77.8167 433.39 75.0435 433.769 73.0694Z" fill="#DEA44D"/>
<path d="M447.091 89.4239C447.784 90.6937 449.152 93.2027 448.398 94.352C447.886 95.1332 446.607 94.9626 445.373 94.7984C443.692 94.5721 442.072 93.9523 440.613 92.9782C437.086 90.5526 435.37 86.888 433.993 83.8621C432.326 80.1961 430.782 76.8072 431.762 75.7028C433.196 74.093 439.842 77.614 442.373 82.0611C442.749 82.7243 443.331 83.9275 444.5 85.6809C445.812 87.6486 446.273 87.9231 447.091 89.4239Z" fill="#DEA44D"/>
<path d="M428.064 78.6402C426.571 80.3834 426.752 82.8731 427.106 86.9559C427.415 90.5308 428.396 93.2668 430.358 98.7401C430.688 99.6598 431.149 100.891 432.073 101.154C433.593 101.585 435.282 99.0903 435.361 98.9736C437.52 95.7117 436.418 91.0478 435.311 86.3621C434.335 82.2305 433.243 77.6063 430.88 77.2407C429.533 77.0291 428.362 78.2913 428.064 78.6402Z" fill="#DEA44D"/>
<path d="M427.916 76.3108C426.575 75.1089 422.754 77.6499 420.608 80.5181C420.238 81.0132 418.078 83.9814 417.911 88.4182C417.819 90.8336 418.274 94.8677 419.838 95.3038C420.064 95.3666 420.741 95.4731 422.358 93.7517C424.41 91.5711 425.817 88.7376 426.983 84.3598C428.213 79.7484 428.89 77.1869 427.916 76.3108Z" fill="#DEA44D"/>
<path d="M418.69 80.6989C414.623 83.3926 413.19 83.7774 412.079 83.1078C410.883 82.3895 410.365 80.6309 410.355 79.3174C410.335 75.6733 414.264 73.3824 414.962 72.9758C419.737 70.191 426.292 71.6661 426.698 73.8736C426.946 75.2269 424.195 77.0509 418.69 80.6989Z" fill="#DEA44D"/>
<path d="M432.321 70.8003C432.519 69.6638 435.814 69.5625 436.043 69.5573C440.286 69.456 444.689 72.0471 444.515 73.6941C444.46 74.2135 443.956 74.5599 443.672 74.7561C442.768 75.3808 441.79 75.1409 440.189 74.7779C436.038 73.8262 436.094 73.9314 435.475 73.6235C435.128 73.4516 432.125 71.9355 432.321 70.8003Z" fill="#C27F2D"/>
<path d="M441.329 78.8121C441.826 79.4534 442.807 80.7233 442.479 81.4531C442.253 81.9496 441.517 81.9906 440.808 82.0304C439.841 82.084 438.874 81.9093 437.969 81.5173C435.777 80.5283 434.502 78.6453 433.472 77.0855C432.23 75.1961 431.071 73.4478 431.532 72.7243C432.209 71.661 436.251 72.9321 438.051 75.1705C438.524 75.8038 439.026 76.4088 439.554 76.9829C440.459 77.9488 440.741 78.054 441.329 78.8121Z" fill="#C27F2D"/>
<path d="M430.87 75.6258C430.371 76.8675 430.464 78.1143 430.644 80.1538C430.795 81.9367 431.17 83.1322 431.921 85.5257C432.048 85.9272 432.223 86.4621 432.548 86.3877C433.084 86.2671 433.643 84.5919 433.669 84.5111C434.382 82.3305 433.941 80.1627 433.497 77.9847C433.106 76.0607 432.669 73.9147 431.841 74.2649C431.363 74.4573 430.97 75.377 430.87 75.6258Z" fill="#C27F2D"/>
<path d="M429.412 73.4773C428.555 72.9437 426.611 74.7895 425.64 76.6392C424.912 78.0753 424.609 79.7391 424.778 81.3852C424.928 82.7564 425.521 84.9844 426.44 85.0627C426.573 85.0729 426.964 85.0627 427.733 83.9147C428.708 82.4614 429.266 80.7079 429.558 78.1168C429.866 75.386 430.037 73.8672 429.412 73.4773Z" fill="#C27F2D"/>
<path d="M424.572 76.9483C422.503 78.907 421.725 79.2764 421.043 79.0198C420.308 78.7428 419.866 77.8064 419.753 77.0663C419.437 75.014 421.463 73.2951 421.824 72.9911C424.285 70.9055 428.108 71.0325 428.521 72.2343C428.778 72.9706 427.373 74.2969 424.572 76.9483Z" fill="#C27F2D"/>
<path d="M428.222 70.2372C428.131 71.0068 424.989 71.4262 424.77 71.4545C420.723 71.9675 416.298 70.7259 416.32 69.6189C416.328 69.2687 416.781 68.9865 417.037 68.8262C417.852 68.3131 418.802 68.3696 420.364 68.4414C424.413 68.63 424.351 68.5697 424.968 68.6979C425.314 68.7813 428.314 69.465 428.222 70.2372Z" fill="#C27F2D"/>
<path d="M421.276 63.662C420.903 63.1028 420.165 61.9945 420.442 61.3788C420.631 60.9594 421.209 60.9389 421.767 60.9196C422.528 60.8946 423.284 61.0647 423.979 61.4173C425.673 62.3088 426.623 63.9468 427.39 65.3026C428.319 66.9445 429.179 68.4645 428.799 69.0763C428.242 69.9742 425.104 68.8018 423.751 66.8496C423.398 66.3007 423.021 65.7728 422.621 65.268C421.935 64.4137 421.716 64.3188 421.276 63.662Z" fill="#C27F2D"/>
<path d="M431.047 66.053C431.771 64.9306 431.499 63.5389 431.014 61.2531C430.592 59.2547 429.846 57.7898 428.356 54.864C428.106 54.3714 427.76 53.7095 427.218 53.648C426.325 53.5389 425.541 55.1038 425.504 55.1795C424.507 57.2203 425.453 59.7665 426.408 62.3242C427.247 64.5792 428.186 67.1023 429.55 67.0984C430.324 67.0971 430.901 66.2775 431.047 66.053Z" fill="#C27F2D"/>
<path d="M431.489 67.3447C431.995 67.8359 433.268 66.1235 433.942 64.4086C434.463 63.0192 434.71 61.5179 434.669 60.0089C434.633 58.739 434.358 56.6739 433.794 56.6084C433.713 56.5982 433.472 56.6084 432.952 57.6731C432.291 59.0212 431.875 60.6413 431.588 63.0463C431.287 65.5784 431.119 66.9855 431.489 67.3447Z" fill="#C27F2D"/>
<path d="M436.217 64.0468C438.335 62.1574 439.122 61.8137 439.797 62.092C440.525 62.3934 440.942 63.3439 441.039 64.0866C441.303 66.1518 439.232 67.8 438.866 68.0925C436.353 70.0974 432.535 69.8447 432.152 68.63C431.915 67.8873 433.349 66.6123 436.217 64.0468Z" fill="#C27F2D"/>
<path d="M426.784 63.4222C428.591 61.9394 430.954 62.5166 431.415 62.641C432.355 62.8975 433.39 63.7852 435.42 65.554C437.485 67.3498 438.524 68.2708 438.814 69.2046C439.46 71.2749 438.536 73.3875 438.109 74.3623C437.771 75.1512 437.147 76.5622 435.795 77.4883C434.524 78.358 433.317 78.3131 431.163 78.1989C428.295 78.0463 426.842 77.9693 425.345 76.7777C425.17 76.6391 422.469 74.4278 422.655 71.5917C422.706 70.8028 422.934 70.6836 424.344 67.8975C426.113 64.4022 426.034 64.0366 426.784 63.4222Z" fill="#5C3C28"/>
<path d="M428.065 65.8991C428.291 65.8529 428.396 65.9542 428.754 66.0415C429.063 66.109 429.378 66.1332 429.692 66.1133C430.663 66.1133 432.228 66.5661 432.629 66.6815C434.323 67.1638 435.173 67.3844 435.445 67.818C435.931 68.5876 435.707 69.6138 435.319 71.3698C434.932 73.1258 434.733 74.0263 433.942 74.7792C433.152 75.5322 431.918 75.9837 430.815 75.6322C429.524 75.2205 429.634 74.1033 428.062 73.0745C426.348 71.9522 425.296 72.6782 424.808 71.7251C424.131 70.386 425.599 67.7923 426.435 67.1779C426.647 67.0214 426.96 66.8893 427.374 66.4673C427.67 66.171 427.789 65.9568 428.065 65.8991Z" fill="#6A4B3D"/>
<path d="M430.969 68.984C430.832 69.084 430.759 69.0494 430.725 69.1123C430.632 69.2777 430.965 69.9742 431.379 69.9152C431.476 69.8992 431.567 69.8505 431.639 69.7755C431.712 69.7006 431.763 69.6027 431.786 69.4945C431.856 69.0789 431.358 68.7005 431.168 68.7839C431.099 68.8108 431.097 68.8891 430.969 68.984Z" fill="#CAAFA9"/>
<path d="M432.414 67.6384C432.313 67.6204 432.188 67.7667 432.169 67.9026C432.119 68.1964 432.517 68.4709 432.621 68.3991C432.725 68.3272 432.608 67.6756 432.414 67.6384Z" fill="#CAAFA9"/>
<path d="M431.376 71.7764C431.405 71.5943 431.477 71.5571 431.461 71.4891C431.421 71.2993 430.746 71.094 430.499 71.4763C430.443 71.5674 430.412 71.6755 430.41 71.7868C430.408 71.8982 430.435 72.0076 430.489 72.101C430.707 72.4447 431.291 72.2934 431.369 72.0791C431.391 71.9996 431.343 71.9457 431.376 71.7764Z" fill="#CAAFA9"/>
<path d="M430.709 73.8108C430.789 73.7402 430.781 73.5414 430.709 73.426C430.554 73.1823 430.106 73.3221 430.081 73.4568C430.056 73.5914 430.552 73.9468 430.709 73.8108Z" fill="#CAAFA9"/>
<path d="M429.446 70.545C429.528 70.4745 429.518 70.2757 429.446 70.1602C429.293 69.9178 428.844 70.0563 428.819 70.191C428.794 70.3257 429.29 70.6823 429.446 70.545Z" fill="#CAAFA9"/>
<path d="M428.891 67.5768C428.68 67.6551 428.525 68.0502 428.606 68.3298C428.73 68.7582 429.403 68.9147 429.78 68.6453C429.812 68.6223 430.083 68.4209 430.078 68.104C430.078 68.0234 430.06 67.9439 430.027 67.8729C429.993 67.8019 429.944 67.7416 429.885 67.6974C429.772 67.623 429.689 67.6974 429.468 67.6974C429.128 67.6949 429.052 67.5166 428.891 67.5768Z" fill="#CAAFA9"/>
<path d="M432.957 73.1027C433.022 73.2721 432.981 73.349 433.027 73.3952C433.155 73.5235 433.818 73.2669 433.83 72.7936C433.832 72.6823 433.805 72.5729 433.752 72.4795C433.698 72.3862 433.621 72.3133 433.531 72.2703C433.182 72.124 432.772 72.6204 432.813 72.8475C432.826 72.9296 432.894 72.945 432.957 73.1027Z" fill="#CAAFA9"/>
<path d="M432.002 70.6438C431.969 70.7541 432.074 70.9132 432.19 70.9619C432.438 71.0658 432.74 70.6656 432.695 70.5386C432.65 70.4116 432.064 70.4321 432.002 70.6438Z" fill="#CAAFA9"/>
<path d="M431.319 74.987C431.352 75.2359 431.669 75.4745 431.927 75.4296C432.319 75.3603 432.565 74.6304 432.392 74.1661C432.378 74.1251 432.247 73.789 431.97 73.7441C431.9 73.7309 431.828 73.7376 431.761 73.7635C431.694 73.7895 431.634 73.8339 431.586 73.8929C431.502 74.0147 431.556 74.1135 431.518 74.3611C431.46 74.7369 431.293 74.7933 431.319 74.987Z" fill="#CAAFA9"/>
<path d="M433.818 69.6638C433.676 69.574 433.668 69.4842 433.607 69.4791C433.434 69.4624 433.042 70.1205 433.286 70.5053C433.344 70.5952 433.424 70.6634 433.517 70.7011C433.609 70.7388 433.709 70.7443 433.804 70.7169C434.16 70.5886 434.222 69.9165 434.069 69.7639C434.013 69.7138 433.95 69.7485 433.818 69.6638Z" fill="#CAAFA9"/>
<path d="M427.987 69.7741C427.844 69.6843 427.836 69.5945 427.775 69.5881C427.604 69.5727 427.211 70.2295 427.456 70.6143C427.513 70.7044 427.594 70.7727 427.686 70.8105C427.778 70.8482 427.878 70.8536 427.973 70.8259C428.329 70.6977 428.391 70.0255 428.237 69.8742C428.181 69.819 428.119 69.8588 427.987 69.7741Z" fill="#CAAFA9"/>
<path d="M435.615 71.4865C435.581 71.3762 435.413 71.3223 435.295 71.3583C435.042 71.4455 435.014 71.9727 435.118 72.0419C435.222 72.1112 435.678 71.6969 435.615 71.4865Z" fill="#CAAFA9"/>
<path d="M433.794 74.2956C433.691 74.2956 433.593 74.4611 433.591 74.6009C433.584 74.9011 434.016 75.0973 434.107 75.0063C434.199 74.9152 433.991 74.2944 433.794 74.2956Z" fill="#CAAFA9"/>
<path d="M428.696 71.7431C428.537 71.5673 428.157 71.5956 427.977 71.8085C427.701 72.1317 427.893 72.8821 428.278 73.1335C428.312 73.1553 428.596 73.3349 428.843 73.1797C428.906 73.142 428.96 73.0871 428.999 73.0199C429.038 72.9527 429.063 72.8753 429.069 72.7949C429.069 72.641 428.976 72.5999 428.875 72.3754C428.717 72.0342 428.82 71.8713 428.696 71.7431Z" fill="#CAAFA9"/>
</g>
<path d="M79 60H45C40.5817 60 37 63.5817 37 68V92C37 96.4183 40.5817 100 45 100H79C83.4183 100 87 96.4183 87 92V68C87 63.5817 83.4183 60 79 60Z" fill="#ECE6DF"/>
<path d="M37 72.5H55" stroke="black" stroke-opacity="0.11"/>
<path d="M70 72.5H87" stroke="black" stroke-opacity="0.11"/>
<path d="M69.5 60V100" stroke="black" stroke-opacity="0.11"/>
<path d="M37 86.5H55" stroke="black" stroke-opacity="0.11"/>
<path d="M69 86.5H87" stroke="black" stroke-opacity="0.11"/>
<path d="M55.5 60V100" stroke="black" stroke-opacity="0.11"/>
<g opacity="0.5">
<path opacity="0.5" d="M69.8491 42.5009C70.5271 43.1657 70.5271 44.2441 69.8491 44.9097C69.1702 45.5753 68.0697 45.5753 67.3917 44.9097C64.4173 41.9941 59.5782 41.9941 56.6042 44.9097C55.9253 45.5753 54.8244 45.5753 54.1464 44.9097C53.8071 44.5771 53.6382 44.1423 53.6382 43.7049C53.6382 43.2692 53.8076 42.8331 54.1464 42.5009C58.476 38.2567 65.5195 38.2567 69.8491 42.5009Z" fill="white"/>
<path opacity="0.5" d="M75.8188 37.073C76.4969 37.7381 76.4969 38.817 75.8188 39.4826C75.1399 40.1482 74.0399 40.1482 73.3614 39.4826C67.0958 33.339 56.9006 33.339 50.635 39.4826C49.9565 40.1482 48.8556 40.1482 48.178 39.4826C47.8388 39.15 47.6685 38.7135 47.6685 38.2778C47.6685 37.8412 47.8388 37.406 48.178 37.073C51.8692 33.4538 56.7774 31.4608 61.998 31.4608C67.2186 31.4608 72.1268 33.4538 75.8188 37.073Z" fill="white"/>
<path opacity="0.5" d="M81.2868 31.0204C81.9652 31.6856 81.9652 32.7644 81.2868 33.4296C80.6083 34.0948 79.5083 34.0948 78.8298 33.4296C74.3334 29.0218 68.3556 26.5945 61.9976 26.5945C55.6396 26.5945 49.6622 29.0218 45.1667 33.4296C44.4874 34.0948 43.3874 34.0948 42.7093 33.4296C42.3701 33.097 42.2007 32.6609 42.2007 32.2248C42.2007 31.7891 42.3705 31.353 42.7093 31.0204C47.8613 25.969 54.7121 23.1875 61.9976 23.1875C69.2844 23.1875 76.1348 25.969 81.2868 31.0204Z" fill="white"/>
</g>
<path d="M349.943 226.985H351.536L347.94 237H346.033L342.444 226.985H344.283L346.669 234.341L347.052 235.756H347.182L347.558 234.341L349.943 226.985ZM358.263 234.416H354.25L353.409 237H351.892L355.439 226.985H357.36L360.908 237H359.117L358.263 234.416ZM357.887 233.254L356.697 229.549L356.321 228.12H356.185L355.815 229.549L354.612 233.254H357.887ZM362.795 237V226.985H364.49V235.797H368.503L368.277 237H362.795ZM372.174 237H370.479V226.985H372.174V237ZM374.99 226.985H378.552C379.431 226.985 380.206 227.104 380.876 227.341C381.546 227.578 382.106 227.906 382.558 228.325C383.009 228.74 383.348 229.232 383.576 229.802C383.809 230.371 383.925 230.989 383.925 231.654C383.925 232.074 383.877 232.497 383.781 232.926C383.69 233.354 383.547 233.767 383.351 234.163C383.155 234.555 382.906 234.924 382.605 235.271C382.305 235.617 381.945 235.92 381.525 236.18C381.111 236.435 380.634 236.635 380.097 236.781C379.563 236.927 378.966 237 378.306 237H374.99V226.985ZM376.686 235.797H378.559C379.169 235.797 379.7 235.697 380.151 235.496C380.603 235.291 380.976 235.015 381.272 234.669C381.569 234.318 381.79 233.908 381.936 233.438C382.081 232.965 382.154 232.456 382.154 231.914C382.154 231.322 382.07 230.795 381.901 230.335C381.733 229.875 381.484 229.485 381.156 229.166C380.833 228.847 380.434 228.605 379.96 228.441C379.486 228.273 378.946 228.188 378.34 228.188H376.686V235.797ZM393.167 237H391.465V228.188H388.218L388.443 226.985H396.517L396.291 228.188H393.167V237ZM398.301 237V226.985H399.996V231.189H404.973V226.985H406.668V237H404.973V232.393H399.996V237H398.301ZM411.18 233.104V237H409.484V226.985H412.567C413.114 226.985 413.604 227.056 414.037 227.197C414.475 227.334 414.844 227.523 415.145 227.765C415.445 228.002 415.675 228.28 415.835 228.599C415.999 228.918 416.081 229.259 416.081 229.624C416.081 229.948 416.022 230.251 415.903 230.533C415.785 230.816 415.63 231.078 415.438 231.319C415.247 231.556 415.031 231.773 414.789 231.969C414.552 232.16 414.315 232.326 414.078 232.468L416.977 237H414.974L412.834 233.104H411.18ZM411.18 231.935H413.237C413.406 231.843 413.561 231.729 413.702 231.593C413.843 231.456 413.964 231.303 414.064 231.135C414.169 230.962 414.249 230.777 414.304 230.581C414.358 230.385 414.386 230.182 414.386 229.973C414.386 229.722 414.342 229.487 414.256 229.269C414.169 229.05 414.039 228.861 413.866 228.701C413.698 228.542 413.483 228.416 413.224 228.325C412.968 228.234 412.67 228.188 412.328 228.188H411.18V231.935ZM420.449 226.985V233.254C420.449 233.714 420.52 234.113 420.661 234.45C420.807 234.787 420.996 235.065 421.229 235.284C421.465 235.503 421.732 235.667 422.028 235.776C422.325 235.881 422.623 235.934 422.924 235.934C423.234 235.934 423.525 235.879 423.799 235.77C424.077 235.66 424.318 235.498 424.523 235.284C424.729 235.07 424.89 234.801 425.009 234.478C425.132 234.154 425.193 233.776 425.193 233.343V226.985H426.656V233.247C426.656 233.557 426.62 233.869 426.547 234.184C426.479 234.493 426.371 234.792 426.226 235.079C426.08 235.366 425.895 235.635 425.672 235.886C425.453 236.136 425.193 236.355 424.893 236.542C424.592 236.724 424.25 236.87 423.867 236.979C423.489 237.084 423.07 237.137 422.609 237.137C422.035 237.137 421.511 237.052 421.037 236.884C420.563 236.711 420.155 236.458 419.813 236.125C419.476 235.792 419.214 235.384 419.027 234.901C418.845 234.414 418.754 233.855 418.754 233.227V226.985H420.449Z" fill="#2C2020"/>
<path d="M46.0508 233.05C45.8092 233.259 45.5404 233.435 45.2441 233.576C44.9525 233.713 44.654 233.825 44.3486 233.911C44.0479 233.993 43.7493 234.05 43.4531 234.082C43.1615 234.118 42.8971 234.137 42.6602 234.137C41.9902 234.137 41.3659 234.021 40.7871 233.788C40.2129 233.556 39.7139 233.228 39.29 232.804C38.8662 232.375 38.5335 231.86 38.292 231.259C38.0505 230.653 37.9297 229.98 37.9297 229.242C37.9297 228.677 38.0003 228.153 38.1416 227.67C38.2829 227.182 38.4788 226.74 38.7295 226.344C38.9801 225.943 39.2786 225.587 39.625 225.277C39.9714 224.967 40.3496 224.708 40.7598 224.498C41.1699 224.284 41.6051 224.122 42.0654 224.013C42.5257 223.903 42.9974 223.849 43.4805 223.849C43.6354 223.849 43.8109 223.855 44.0068 223.869C44.2028 223.883 44.4124 223.906 44.6357 223.938C44.859 223.965 45.0892 224.004 45.3262 224.054C45.5677 224.099 45.8115 224.159 46.0576 224.231L45.7842 225.558L45.6475 225.626C45.1735 225.407 44.7292 225.257 44.3145 225.175C43.9043 225.093 43.5488 225.052 43.248 225.052C42.7285 225.052 42.25 225.152 41.8125 225.353C41.375 225.549 40.999 225.82 40.6846 226.166C40.3701 226.512 40.124 226.923 39.9463 227.396C39.7731 227.866 39.6865 228.372 39.6865 228.914C39.6865 229.447 39.7686 229.953 39.9326 230.432C40.0967 230.91 40.3359 231.332 40.6504 231.696C40.9694 232.056 41.359 232.343 41.8193 232.558C42.2796 232.772 42.8083 232.879 43.4053 232.879C43.7835 232.879 44.1982 232.826 44.6494 232.722C45.1006 232.617 45.5677 232.428 46.0508 232.154V233.05ZM53.7002 231.416H49.6875L48.8467 234H47.3291L50.877 223.985H52.7979L56.3457 234H54.5547L53.7002 231.416ZM53.3242 230.254L52.1348 226.549L51.7588 225.12H51.6221L51.2529 226.549L50.0498 230.254H53.3242ZM59.9277 230.104V234H58.2324V223.985H61.3154C61.8623 223.985 62.3522 224.056 62.7852 224.197C63.2227 224.334 63.5918 224.523 63.8926 224.765C64.1934 225.002 64.4235 225.28 64.583 225.599C64.7471 225.918 64.8291 226.259 64.8291 226.624C64.8291 226.948 64.7699 227.251 64.6514 227.533C64.5329 227.816 64.3779 228.078 64.1865 228.319C63.9951 228.556 63.7786 228.773 63.5371 228.969C63.3001 229.16 63.0632 229.326 62.8262 229.468L65.7246 234H63.7217L61.582 230.104H59.9277ZM59.9277 228.935H61.9854C62.154 228.843 62.3089 228.729 62.4502 228.593C62.5915 228.456 62.7122 228.303 62.8125 228.135C62.9173 227.962 62.9971 227.777 63.0518 227.581C63.1064 227.385 63.1338 227.182 63.1338 226.973C63.1338 226.722 63.0905 226.487 63.0039 226.269C62.9173 226.05 62.7874 225.861 62.6143 225.701C62.4456 225.542 62.2314 225.416 61.9717 225.325C61.7165 225.234 61.418 225.188 61.0762 225.188H59.9277V228.935ZM67.5703 223.985H71.1318C72.0114 223.985 72.7861 224.104 73.4561 224.341C74.126 224.578 74.6865 224.906 75.1377 225.325C75.5889 225.74 75.9284 226.232 76.1562 226.802C76.3887 227.371 76.5049 227.989 76.5049 228.654C76.5049 229.074 76.457 229.497 76.3613 229.926C76.2702 230.354 76.1266 230.767 75.9307 231.163C75.7347 231.555 75.4863 231.924 75.1855 232.271C74.8848 232.617 74.5247 232.92 74.1055 233.18C73.6908 233.435 73.2145 233.635 72.6768 233.781C72.1436 233.927 71.5465 234 70.8857 234H67.5703V223.985ZM69.2656 232.797H71.1387C71.7493 232.797 72.2803 232.697 72.7314 232.496C73.1826 232.291 73.5563 232.015 73.8525 231.669C74.1488 231.318 74.3698 230.908 74.5156 230.438C74.6615 229.965 74.7344 229.456 74.7344 228.914C74.7344 228.322 74.6501 227.795 74.4814 227.335C74.3128 226.875 74.0645 226.485 73.7363 226.166C73.4128 225.847 73.014 225.605 72.54 225.441C72.0661 225.273 71.526 225.188 70.9199 225.188H69.2656V232.797ZM78.8496 234V223.985H80.5449V228.189H85.5215V223.985H87.2168V234H85.5215V229.393H80.5449V234H78.8496ZM94.6816 232.934C95.1738 232.934 95.6204 232.831 96.0215 232.626C96.4225 232.421 96.7643 232.143 97.0469 231.792C97.334 231.437 97.555 231.022 97.71 230.548C97.8649 230.074 97.9424 229.568 97.9424 229.03C97.9424 228.461 97.8558 227.934 97.6826 227.451C97.514 226.964 97.2793 226.542 96.9785 226.187C96.6777 225.831 96.3223 225.553 95.9121 225.353C95.502 225.152 95.0576 225.052 94.5791 225.052C94.0824 225.052 93.6335 225.157 93.2324 225.366C92.8314 225.576 92.4896 225.861 92.207 226.221C91.9245 226.576 91.7057 226.991 91.5508 227.465C91.4004 227.939 91.3252 228.442 91.3252 228.976C91.3252 229.545 91.4095 230.072 91.5781 230.555C91.7467 231.038 91.9792 231.455 92.2754 231.806C92.5762 232.157 92.9316 232.432 93.3418 232.633C93.752 232.833 94.1986 232.934 94.6816 232.934ZM94.4492 234.137C94.0072 234.137 93.5788 234.087 93.1641 233.986C92.7493 233.882 92.3597 233.733 91.9951 233.542C91.6351 233.346 91.3047 233.107 91.0039 232.824C90.7077 232.542 90.4502 232.218 90.2314 231.854C90.0173 231.489 89.8509 231.088 89.7324 230.65C89.6139 230.208 89.5547 229.734 89.5547 229.229C89.5547 228.704 89.6185 228.208 89.7461 227.738C89.8737 227.269 90.0514 226.836 90.2793 226.439C90.5117 226.043 90.7897 225.685 91.1133 225.366C91.4368 225.043 91.7923 224.769 92.1797 224.546C92.5716 224.323 92.9909 224.152 93.4375 224.033C93.8841 223.91 94.349 223.849 94.832 223.849C95.4837 223.849 96.1035 223.96 96.6914 224.184C97.2839 224.402 97.8034 224.724 98.25 225.147C98.6966 225.567 99.0521 226.079 99.3164 226.686C99.5807 227.292 99.7129 227.98 99.7129 228.75C99.7129 229.27 99.6491 229.764 99.5215 230.233C99.3984 230.703 99.223 231.138 98.9951 231.539C98.7673 231.936 98.4938 232.296 98.1748 232.619C97.8558 232.938 97.5003 233.212 97.1084 233.439C96.721 233.663 96.3018 233.836 95.8506 233.959C95.404 234.077 94.9368 234.137 94.4492 234.137ZM102.051 234V223.985H103.746V232.797H107.759L107.533 234H102.051ZM109.734 223.985H113.296C114.175 223.985 114.95 224.104 115.62 224.341C116.29 224.578 116.851 224.906 117.302 225.325C117.753 225.74 118.092 226.232 118.32 226.802C118.553 227.371 118.669 227.989 118.669 228.654C118.669 229.074 118.621 229.497 118.525 229.926C118.434 230.354 118.291 230.767 118.095 231.163C117.899 231.555 117.65 231.924 117.35 232.271C117.049 232.617 116.689 232.92 116.27 233.18C115.855 233.435 115.379 233.635 114.841 233.781C114.308 233.927 113.711 234 113.05 234H109.734V223.985ZM111.43 232.797H113.303C113.913 232.797 114.444 232.697 114.896 232.496C115.347 232.291 115.72 232.015 116.017 231.669C116.313 231.318 116.534 230.908 116.68 230.438C116.826 229.965 116.898 229.456 116.898 228.914C116.898 228.322 116.814 227.795 116.646 227.335C116.477 226.875 116.229 226.485 115.9 226.166C115.577 225.847 115.178 225.605 114.704 225.441C114.23 225.273 113.69 225.188 113.084 225.188H111.43V232.797ZM121.014 234V223.985H127.104L126.879 225.188H122.709V228.21H126.4L126.182 229.379H122.709V232.797H127.2L126.975 234H121.014ZM131.186 230.104V234H129.49V223.985H132.573C133.12 223.985 133.61 224.056 134.043 224.197C134.48 224.334 134.85 224.523 135.15 224.765C135.451 225.002 135.681 225.28 135.841 225.599C136.005 225.918 136.087 226.259 136.087 226.624C136.087 226.948 136.028 227.251 135.909 227.533C135.791 227.816 135.636 228.078 135.444 228.319C135.253 228.556 135.036 228.773 134.795 228.969C134.558 229.16 134.321 229.326 134.084 229.468L136.982 234H134.979L132.84 230.104H131.186ZM131.186 228.935H133.243C133.412 228.843 133.567 228.729 133.708 228.593C133.849 228.456 133.97 228.303 134.07 228.135C134.175 227.962 134.255 227.777 134.31 227.581C134.364 227.385 134.392 227.182 134.392 226.973C134.392 226.722 134.348 226.487 134.262 226.269C134.175 226.05 134.045 225.861 133.872 225.701C133.703 225.542 133.489 225.416 133.229 225.325C132.974 225.234 132.676 225.188 132.334 225.188H131.186V228.935ZM141.754 234V223.985H144.146L148.405 230.363L149.109 231.683H149.246L149.157 230.192V223.985H150.613V234H149.021L143.9 226.364L143.258 225.1H143.121L143.21 226.556V234H141.754ZM158.823 231.416H154.811L153.97 234H152.452L156 223.985H157.921L161.469 234H159.678L158.823 231.416ZM158.447 230.254L157.258 226.549L156.882 225.12H156.745L156.376 226.549L155.173 230.254H158.447ZM163.075 234L163.841 223.985H166.322L168.469 230.384L168.852 231.874H168.988L169.378 230.384L171.531 223.985H174.081L174.854 234H173.104L172.639 226.515L172.598 224.956H172.461L172.051 226.446L169.61 233.795H168.065L165.604 226.46L165.181 224.956H165.044L165.01 226.501L164.552 234H163.075ZM177.355 234V223.985H183.446L183.221 225.188H179.051V228.21H182.742L182.523 229.379H179.051V232.797H183.542L183.316 234H177.355Z" fill="#2C2020"/>
<defs>
<clipPath id="clip0">
<rect width="59" height="63" fill="white" transform="translate(402 40)"/>
</clipPath>
</defs>
</svg>
