<svg width="149" height="149" viewBox="0 0 149 149" fill="none" xmlns="http://www.w3.org/2000/svg">
<g clip-path="url(#clip0)">
<rect width="149" height="149" fill="#DE1616"/>
<path d="M14.7004 60.2786L33.2375 78.8955L50.7185 61.5801C77.3095 90.0253 105.199 117.444 131.584 145.999C135.549 149.981 141.999 150.003 145.991 146.049C149.983 142.094 150.006 135.661 146.041 131.679C117.72 105.028 89.3128 78.1609 60.983 51.4128L84.534 28.085L51.7697 23.5605L14.7004 60.2786Z" fill="#FAFF07"/>
<path d="M74.5005 4.48682e-05C89.7498 8.56605 101.328 20.859 108.157 33.7101C115.079 46.7355 118.122 60.3334 118.184 71.2054C118.312 93.4979 100.065 111.57 77.7138 111.57C65.7875 111.57 55.0659 106.426 47.6591 98.2392L43.5625 101.68C42.8648 101.413 42.124 101.276 41.3767 101.275C39.5788 101.276 37.8721 102.065 36.7101 103.433C33.7878 103.814 31.342 105.83 30.4154 108.62C27.3347 114.784 21.9294 119.618 15.3886 121.83C15.326 121.852 15.2707 121.879 15.2158 121.907C12.1915 123.012 9.1597 125.009 6.57848 127.595C1.47662 132.727 -1.01658 139.294 0.387086 143.903C0.248542 144.303 0.177166 144.724 0.175819 145.147C0.175967 147.275 1.90532 149 4.03863 149C4.57266 148.998 5.10049 148.886 5.58883 148.67C10.2014 149.708 16.4664 147.155 21.3659 142.241C24.1433 139.447 26.2241 136.141 27.2456 132.9C29.5225 126.408 34.4165 121.12 40.633 118.145C40.7815 118.074 40.9013 118.001 41.0086 117.926C43.0928 116.932 44.6177 115.055 45.1606 112.816C54.6952 124.033 68.9941 131.197 84.9793 131.572C114.297 132.26 136.212 110.736 137.225 79.7837C137.735 64.2064 131.692 44.1209 117.923 27.6481C107.4 15.0585 91.9695 4.60657 74.4995 0L74.5005 4.48682e-05Z" fill="#FAFF07"/>
</g>
<defs>
<clipPath id="clip0">
<rect width="149" height="149" fill="white"/>
</clipPath>
</defs>
</svg>
